<?xml version="1.0" encoding="UTF-8"?>
<svg xmlns="http://www.w3.org/2000/svg" xmlns:xlink="http://www.w3.org/1999/xlink" viewBox="0 0 1080 1080">
  <defs>
    <style>
      .cls-1 {
        fill: #6ca4b2;
      }

      .cls-2 {
        fill: #f0f2f2;
      }

      .cls-3 {
        fill: #a6acbf;
      }

      .cls-4 {
        fill: #e5cbb6;
      }

      .cls-5 {
        fill: #a7acbf;
      }

      .cls-6 {
        fill: #128857;
      }

      .cls-7 {
        fill: #49426d;
      }

      .cls-8 {
        fill: #f79d1e;
      }

      .cls-9 {
        fill: #e08f59;
      }

      .cls-10 {
        font-family: SourceSerifVariable-Roman, 'Source Serif Variable';
        font-size: 200px;
        font-variation-settings: 'wght' 389;
      }

      .cls-10, .cls-11 {
        fill: #fff;
      }

      .cls-10, .cls-12 {
        stroke: #fff;
        stroke-miterlimit: 10;
      }

      .cls-13 {
        fill: #07020e;
      }

      .cls-14 {
        fill: #9c4e20;
      }

      .cls-15 {
        fill: #9d3b1f;
      }

      .cls-16, .cls-12 {
        fill: none;
      }

      .cls-17 {
        clip-path: url(#clippath-1);
      }

      .cls-18 {
        fill: #d35f7b;
      }

      .cls-19 {
        fill: #68637f;
      }

      .cls-20 {
        clip-path: url(#clippath-3);
      }

      .cls-21 {
        fill: #9e5264;
      }

      .cls-22 {
        fill: #df905c;
      }

      .cls-23 {
        fill: #673623;
      }

      .cls-24 {
        fill: #67637f;
      }

      .cls-25 {
        fill: #fad092;
      }

      .cls-26 {
        fill: #22202f;
      }

      .cls-27 {
        fill: #eedccc;
      }

      .cls-28 {
        fill: #dbc1aa;
      }

      .cls-29 {
        clip-path: url(#clippath-2);
      }

      .cls-30 {
        fill: #23212f;
      }

      .cls-12 {
        stroke-width: 9px;
      }

      .cls-31 {
        clip-path: url(#clippath);
      }

      .cls-32 {
        fill: #b26428;
      }

      .cls-33 {
        fill: #221f2e;
      }

      .cls-34 {
        fill: #ccae94;
      }

      .cls-35 {
        fill: #4e486d;
      }
    </style>
    <clipPath id="clippath">
      <rect class="cls-16" x="211.08" y="216.81" width="646.38" height="646.38"/>
    </clipPath>
    <clipPath id="clippath-1">
      <rect class="cls-16" x="211.08" y="216.81" width="646.38" height="646.38"/>
    </clipPath>
    <clipPath id="clippath-2">
      <rect class="cls-16" x="312.51" y="289.93" width="515.97" height="499.73"/>
    </clipPath>
    <clipPath id="clippath-3">
      <rect class="cls-16" x="312.51" y="289.93" width="515.97" height="499.73"/>
    </clipPath>
  </defs>
  <g id="Layer_5">
    <rect class="cls-1" width="1080" height="1080"/>
  </g>
  <g id="Layer_1">
    <text class="cls-10" transform="translate(939.42 740.07) rotate(-68.49) scale(.78 1)"><tspan x="0" y="0">S</tspan></text>
    <text class="cls-10" transform="translate(847.85 864.49) rotate(-49.45) scale(.78 1)"><tspan x="0" y="0">L</tspan></text>
    <text class="cls-10" transform="translate(706.83 955.74) rotate(-28.53) scale(.78 1)"><tspan x="0" y="0">A</tspan></text>
    <text class="cls-10" transform="translate(553.33 987.02) rotate(-7.54) scale(.78 1)"><tspan x="0" y="0">P</tspan></text>
    <text class="cls-10" transform="translate(461.75 978.37) rotate(7.72) scale(.78 1)"><tspan x="0" y="0"> </tspan></text>
    <text class="cls-10" transform="translate(299.55 918.72) rotate(25.1) scale(.78 1)"><tspan x="0" y="0">N</tspan></text>
    <text class="cls-10" transform="translate(182.25 808.61) rotate(47.04) scale(.78 1)"><tspan x="0" y="0">E</tspan></text>
    <text class="cls-10" transform="translate(112.08 670.34) rotate(67.16) scale(.78 1)"><tspan x="0" y="0">P</tspan></text>
    <text class="cls-10" transform="translate(393.22 291.37) rotate(-19.23) scale(.78 1)"><tspan x="0" y="0">U</tspan></text>
    <text class="cls-10" transform="translate(503.03 253.69) rotate(4.02) scale(.78 1)"><tspan x="0" y="0">N</tspan></text>
    <text class="cls-10" transform="translate(623.25 267.87) rotate(22.86) scale(.78 1)"><tspan x="0" y="0">I</tspan></text>
  </g>
  <g id="Layer_2">
    <path class="cls-12" d="M889.72,540c0-96.57-39.14-184-102.43-247.29"/>
    <path class="cls-12" d="M292.71,292.71c-63.29,63.29-102.43,150.72-102.43,247.29"/>
  </g>
  <g id="Layer_4">
    <g class="cls-31">
      <g class="cls-17">
        <path class="cls-11" d="M485.99,407.5c0,22.95,22.7,41.56,50.71,41.56s50.71-18.61,50.71-41.56-22.7-41.56-50.71-41.56-50.71,18.61-50.71,41.56"/>
        <g class="cls-29">
          <g class="cls-20">
            <path class="cls-3" d="M456,546.42c1.18-2.06,2.5-4.05,3.5-6.19,2.59-5.51,4.85-11.18,7.61-16.61,2.01-3.96,4.19-7.96,7.01-11.35,2.87-3.44,6.39-6.45,10.85-7.98.57-.19,1.02-.71,1.53-1.08,3.32-.34,6.63-.68,9.94-1.01,6.91.7,12.88,3.74,18.54,7.5,3.02,2.55,6.04,5.09,9.05,7.63l.03.04c.27.27.54.54.8.81,1.25,1.33,2.5,2.66,3.75,3.98.18.14.36.28.54.42h-.02c.75,1.03,1.47,2.09,2.25,3.09,7.56,9.63,13.75,20.09,18.79,31.22,4.48,9.87,7.35,20.11,7.06,31.12-.37,14.16-6.62,25.44-16.82,34.73-3.79,3.45-8.08,6.36-12.14,9.52-2.05,1.07-4.1,2.14-6.15,3.22-3.57.75-7.12,1.63-10.72,2.21-6.34,1.02-12.7,1.29-18.95-.63-7.05-2.17-11.08-7.63-10.54-14.59.47-6.06,2.54-11.57,6.41-16.34,3.98-2.96,6.63-6.99,8.97-11.26.68-1.25,1.22-2.58,1.82-3.87-1.9,1.88-3.4,3.95-4.97,5.96-1.04,1.33-2.2,2.57-3.3,3.85-6.01,2.06-11.94,4.43-18.07,6.05-3.3.87-6.98.86-10.41.49-4.38-.46-6.29-3.58-5.21-7.9,1.5-5.99,4.82-10.89,9.28-15.19,3.85-3.72,7.48-7.7,10.92-11.81,1.63-1.96,2.58-4.49,3.84-6.76-1.55,1.24-2.69,2.67-3.76,4.14-4.46,6.13-10.7,9.43-17.92,10.95-4.95,1.05-8.28-1.39-9.08-6.39-.29-1.82-.34-3.72-.22-5.57.43-6.8,2.48-13.21,4.83-19.55.26-.7.34-1.47.5-2.21l-.02.04c.16-.23.31-.46.47-.68"/>
            <path class="cls-7" d="M464.47,420.93c-5.07,4.36-10.34,8.39-16.78,10.55-9.17,3.07-15.71.24-19.54-8.6-3.31-7.63-3.82-15.68-2.95-23.82,2.27-21.28,11.64-39.73,23.27-57.2,7.56-11.36,16.03-22.02,25.58-31.76,11.04-11.26,24.34-18.37,40.15-19.83,16.34-1.51,31.47,2.05,43.85,13.4,13.82,12.68,14.33,30.23,1.54,43.97-3.05,3.28-6.75,5.95-10.16,8.9-2.49-2.96-5.04-5.87-7.44-8.91-1.71-2.16-3.84-3.32-6.51-3.77-6.78-1.13-13.31.07-19.67,2.22-15.34,5.18-27.24,14.99-36.73,27.91-8.57,11.66-14.01,24.78-17.69,38.68-.3,1.14.11,2.61.58,3.77.64,1.58,1.65,3,2.51,4.49"/>
            <path class="cls-19" d="M657.91,602.6c-.41.66-.93,1.28-1.22,1.98-7.51,18.29-19.73,33.04-34.51,45.85-2.59,2.25-5.34,4.31-8.01,6.46-3.53,2.52-7.02,5.09-10.61,7.53-9.4,6.4-19.54,11.45-29.91,16.06-.57.25-1.22.34-1.84.5,0-9.21.43-18.46-2.2-27.46.31-.48.6-.97.94-1.43,5.87-7.89,10.56-16.47,14.19-25.58,2.37-5.95,4.29-12.08,6.41-18.13,2.03-.57,3.76.16,5.03,1.63,1.62,1.87,3.01,3.96,4.49,5.95.04.03.09.06.13.09-.05-.02-.1-.05-.15-.07-.04-4.02-1.56-7.54-4.08-10.53-.97-1.15-2.71-1.65-4.1-2.45.8-4.06,1.83-8.09,2.36-12.19,1.05-8.07,2.4-16.16,2.58-24.26.27-11.79-.16-23.61-.74-35.4-.33-6.6-1.45-13.17-2.43-19.72-.86-5.79-2.01-11.53-3.04-17.29,1.47.16,2.94.29,4.41.48,4.05.51,4.92-.17,5.11-4.04,1.1.52,2.19,1.04,3.29,1.56.29.29.54.65.87.87,4.21,2.84,8.51,5.55,12.64,8.51,14.34,10.29,26.64,22.45,35.42,38,9.68,17.16,12.19,35.17,7.43,54.24-.74,2.97-1.65,5.9-2.48,8.84M630.83,555.27c0,.05,0,.11.03.16.01.03.07.04.11.05-.05-.06-.11-.13-.16-.19-.12-.16-.24-.33-.36-.49-2.18-3.84-5-6.99-9.45-8.17-3.16-.84-5.73.68-6.52,3.88-1.07,4.29-.35,8.46,1.11,13.01.22-1.71.34-2.97.55-4.22.22-1.33.39-2.7.82-3.96,1.36-3.99,4.3-5.21,8.12-3.36,1.79.87,3.46,1.99,5.19,2.99.19.1.38.19.56.29M614.03,637.49s.09.06.14.09c-.05-.02-.11-.05-.16-.07-.31-4.2-1.69-7.97-4.71-11-2.85-2.86-6.13-2.6-8.34.75-2.29,3.48-2.9,7.5-3.18,11.58,1.02-1.71,1.77-3.56,2.79-5.24,2.98-4.88,6.94-5.04,10.4-.46,1.07,1.41,2.04,2.9,3.06,4.35M616.18,537.2c.02.06.03.12.06.16.02.03.08.02.12.03-.06-.06-.13-.12-.19-.18,0-1.5-.06-3-.01-4.5.14-4.82,3.15-7.19,7.84-6.03,2.25.56,4.41,1.44,7.23,2.38-4.15-4.28-8.28-7.42-13.86-7.64-2.95-.12-4.64,1.98-4.69,4.98-.07,4,1.39,7.5,3.51,10.79M630.33,578.48c.15-.51.28-1.03.45-1.54.69-2.02,1.18-4.15,2.15-6.02,1.79-3.48,4.6-4.22,7.82-2.05,1.8,1.21,3.27,2.9,5.29,4.74-1.12-4.19-2.87-7.38-5.98-9.78-3.21-2.48-6.05-2.03-8.03,1.52-2.28,4.09-2.09,8.6-1.71,13.13M621.53,584.64c-1-3.19-2.74-6.9-6.11-9.58-3.52-2.79-7.01-1.78-8.71,2.43-1.48,3.66-1.46,7.48-1.27,11.32.95-2.32,1.65-4.73,2.86-6.86,2.07-3.64,5.18-4.06,8.41-1.4,1.8,1.48,3.56,3.02,4.82,4.09M635.81,609.53c.1-.03.19-.06.29-.09-.47-1.56-.86-3.14-1.44-4.66-1.05-2.78-2.44-5.35-5.08-6.98-2.17-1.34-4.51-.99-6.18.92-2.32,2.65-4.09,8.89-3.59,12.39,1.18-2.12,2.19-4.51,3.71-6.52,2.36-3.12,5.09-3.22,7.82-.44,1.63,1.65,2.99,3.57,4.48,5.37M646.04,573.98l.08.07.02-.11-.1.04Z"/>
            <path class="cls-27" d="M638.95,350.03c7.56,1.74,15.13,3.43,22.67,5.22,9.83,2.33,19.63,4.76,29.46,7.1,12.18,2.9,24.37,5.76,36.56,8.6,6.29,1.47,12.6,2.84,18.89,4.3,8.85,2.05,17.69,4.15,26.53,6.21,9.83,2.29,19.68,4.53,29.51,6.85,7.89,1.86,15.77,3.8,23.65,5.71.75.18,1.5.38,2.24.57,0,.19,0,.37,0,.56h0c-2.01.63-4.09,1.11-6.02,1.93-7.03,2.99-13.98,6.13-21,9.13-10.29,4.41-20.62,8.74-30.92,13.13-5.32,2.27-10.62,4.56-15.9,6.91-2.98,1.32-5.91,2.78-8.86,4.17l-3.86,1.3c-3.79,1.6-7.59,3.18-11.37,4.8-4.57,1.96-9.12,3.97-13.71,5.97-4.24-5.08-8.32-10.03-12.47-14.91-1.59-1.87-3.36-3.59-5.05-5.38-.05-.69-.17-1.39-.13-2.08.13-2.5.59-5.01.42-7.48-.41-6.05-.77-12.13-1.75-18.1-1.14-6.95-3.6-13.55-7.22-19.64-2.53-4.26-5.89-4.33-8.7-.23-.93,1.36-1.85,2.75-2.52,4.24-1.91,4.23-3.7,8.51-5.54,12.77-4.22-4.99-8.44-9.99-12.67-14.98-5.07-5.97-10.18-11.91-15.21-17.91-2.42-2.88-4.7-5.87-7.05-8.8"/>
            <path class="cls-4" d="M699.32,422.24c1.69,1.79,3.46,3.51,5.05,5.38,4.15,4.88,8.22,9.82,12.47,14.91,4.6-2,9.15-4.01,13.71-5.97,3.78-1.63,7.58-3.2,11.37-4.8,1.43,1.93,2.76,3.93,4.3,5.77,3.61,4.32,7.36,8.54,10.99,12.85,4.82,5.73,9.55,11.53,14.37,17.25,5.69,6.75,11.44,13.45,17.17,20.18,3.33,3.91,6.68,7.81,9.97,11.74,1.22,1.46,2.31,3.02,3.47,4.53-6.11-1.34-12.24-2.61-18.33-4.02-9.42-2.19-18.82-4.48-28.23-6.73-8.23-1.96-16.45-3.96-24.69-5.87-2.62-.61-5.3-.98-7.95-1.45-2-.44-4.01-.88-6.01-1.32-2.02-.43-4.05-.85-6.07-1.28-1.42-.36-2.83-.73-4.25-1.07-6.47-1.52-12.93-3.03-19.4-4.54-.41-.28-.78-.67-1.23-.82-1.9-.64-3.82-1.2-5.73-1.8.18-.52.3-1.08.56-1.57,2.6-4.9,5.3-9.75,7.8-14.7.92-1.81,1.4-3.84,2.07-5.78.27-.39.65-.74.8-1.17,1.27-3.7,2.6-7.38,3.69-11.13.61-2.09.8-4.3,1.18-6.45.39-1.08.89-2.13,1.13-3.24.66-2.95,1.2-5.92,1.8-8.89"/>
            <path class="cls-19" d="M343.65,621.95c5.19,2.87,10.36,5.79,15.59,8.58,4.1,2.19,8.27,4.25,12.45,6.3,1.11.54,2.34.82,3.52,1.23.12-.19.25-.37.37-.56-.53-.69-.96-1.5-1.61-2.04-6.52-5.37-13.07-10.72-19.64-16.02-2.95-2.38-6-4.63-9-6.94.02-.43-.04-.87.06-1.28,3.72-14.06,7.46-28.13,11.22-42.18.13-.48.61-.87.92-1.3,4.42,3.38,8.88,6.7,13.24,10.15,5.78,4.57,11.48,9.25,17.23,13.87.83.67,1.74,1.25,2.95,1.6-.49-.67-.93-1.39-1.49-1.99-8.61-9.3-17.24-18.58-25.86-27.88-.38-.41-.7-.88-1.05-1.33.37-.31.69-.73,1.11-.93,4.4-2.09,8.8-4.19,13.24-6.2,2.26-1.02,4.61-1.87,6.91-2.79,4.42,7.27,8.96,14.45,13.21,21.82,4.22,7.31,8.14,14.79,12.17,22.21.33.61.49,1.31.73,1.97-.27.46-.55.92-.82,1.37-.15.15-.31.31-.46.46l.02-.02c-4.88,4.28-9.81,8.49-14.6,12.88-1.34,1.23-2.52,2.82-3.24,4.48-.5,1.14-.58,3.06.08,3.92.68.89,2.61,1.47,3.78,1.22,3.83-.8,7.57-2.02,11.32-3.13,1.26-.38,2.47-.94,3.7-1.41-.18.76-.57,1.1-1,1.39-7.25,4.87-14.61,9.58-21.73,14.65-3.94,2.81-7.59,6.06-11.14,9.36-1.9,1.77-1.31,3.58,1.1,4.65.65.29,1.36.61,2.04.61,5.13-.03,10.31.29,15.37-.33,6.51-.8,12.92-2.37,19.38-3.61.05.06.1.12.15.19-.37.21-.72.47-1.11.63-6.08,2.4-12,5.11-17.22,9.13-10.58.29-21.16.58-31.75.87-.84-.64-1.63-1.39-2.54-1.92-5.73-3.32-11.49-6.6-17.24-9.89-.12-7.27-.24-14.54-.37-21.81"/>
            <path class="cls-24" d="M578.77,380.58c.49.92.94,1.86,1.48,2.75,4.46,7.29,6.97,15.23,8.03,23.67.1.78.23,1.55.35,2.32-2.38-.69-4.75-1.38-7.13-2.06,5.86-8.54.39-21.14-8.67-24.56-7.03-2.66-13.91,1.22-15.21,8.61-1.11,6.29,1.13,11.5,5.4,16.01-.88.28-1.77.57-2.65.85-1.54-1.78-3.04-3.61-4.65-5.33-2.19-2.33-4.34-2.67-6.53-.41-1.83,1.89-3.48,4.26-4.34,6.73-2.03,5.83-1.6,11.89-.27,17.83.55,2.48,1.64,4.84,2.49,7.25.23,3.4.44,6.81.69,10.21.47,6.36,1.57,12.46,7.22,16.57-.72.31-1.46.59-2.17.93-5.07,2.37-10.47,3.86-15.99,4.16-8.69.47-17.38.37-25.89-2.33-5.38-1.7-10.69-3.36-15.45-6.48-9.39-6.15-16.25-14.42-20.84-24.63-.8-1.79-1.76-3.5-2.64-5.25,1.84-6.05,4.35-11.79,7.7-17.16,4.89,2.3,9.74,1.59,14.46-.41,2.99-1.27,5.84-2.88,8.76-4.34-.03.28,0,.58-.1.82-4.49,9.73-.66,22.18,7.55,29.17,4.93,4.19,10.58,6.42,17.1,4.97,7.94-1.77,12.98-9.58,12.71-18.4-.39-12.51-11.31-26.72-26.11-24.9.45-.61.83-1.29,1.37-1.81,5.15-5.06,10.38-10.05,15.48-15.16,6.59-6.6,13.92-12.09,22.66-15.5.95-.37,2.07-.3,3.11-.44,5.31,2.18,10.41,4.76,14.66,8.68,2.61,2.41,4.95,5.1,7.41,7.67"/>
            <path class="cls-28" d="M745.78,430.44c2.95-1.39,5.88-2.85,8.86-4.17,5.28-2.35,10.59-4.64,15.9-6.91,10.3-4.39,20.63-8.72,30.92-13.13,7.02-3.01,13.98-6.15,21-9.13,1.93-.82,4.01-1.3,6.02-1.94-.85,3.96-1.65,7.93-2.56,11.87-3.42,14.68-6.88,29.36-10.34,44.04-1.68,7.13-3.44,14.24-5.13,21.37-2.16,9.11-4.28,18.24-6.42,27.35-4.47-5.09-9.01-10.13-13.38-15.3-6.3-7.45-12.43-15.05-18.72-22.51-7.49-8.88-15.09-17.67-22.59-26.54-1.31-1.55-2.37-3.32-3.54-4.99"/>
            <path class="cls-32" d="M524.04,751.08c-7.82-1.31-15.66-2.53-23.47-3.95-3.92-.71-7.78-1.79-11.67-2.7-.61-.19-1.23-.37-1.84-.55-3.47-1.02-6.93-2.03-10.4-3.04-4.07-1.71-8.21-3.27-12.18-5.18-3.4-1.65-6.69-3.57-9.87-5.63-4.08-2.63-6.02-6.77-7.26-11.3-.22-.82-.57-1.6-.86-2.39-.42-5.04-1.15-10.07-1.17-15.11-.02-4.75.69-9.5,1.08-14.25.43-2.17.86-4.34,1.29-6.52.89.24,1.78.48,2.67.73,8.6,2.5,17.2,5.01,25.8,7.52-.11,2.57-.31,5.14-.29,7.7.01,1.36-.09,3.06,1.72,3.54,5.5,1.47,11.02,2.9,16.55,4.27,2.03.51,2.87-.76,3.17-2.52.36-2.18.67-4.37,1-6.56.42.05.86.05,1.27.15,9.02,2.26,18.03,4.53,27.04,6.8-.6,4.14-1.01,8.33-1.83,12.42-1.58,7.86-2.15,15.79-2.05,23.78.05,4.2.21,8.37,2.5,12.09-.47.28-.83.49-1.19.7"/>
            <path class="cls-28" d="M638.95,350.03c2.35,2.94,4.63,5.92,7.05,8.8,5.04,6,10.14,11.94,15.21,17.91,4.23,4.99,8.45,9.98,12.67,14.98-1.88,5.67-3.82,11.32-5.6,17.02-.87,2.76-1.45,5.6-2.16,8.4-.35.52-.85.99-1.03,1.57-1.03,3.19-1.99,6.39-2.98,9.6-.95,2.43-1.91,4.86-2.86,7.3-.75.23-1.53.39-2.24.7-5.53,2.44-11.04,4.95-16.59,7.35-6.47,2.79-12.96,5.53-19.47,8.22-2.39.99-4.87,1.79-7.3,2.68,1.14-5.2,2.23-10.41,3.43-15.59,3.28-14.2,6.56-28.4,9.92-42.59,2.74-11.56,5.61-23.09,8.39-34.64.83-3.45,1.49-6.95,2.32-10.4.12-.51.81-.88,1.24-1.32"/>
            <path class="cls-3" d="M657.91,602.6c.83-2.95,1.74-5.87,2.48-8.84,4.76-19.06,2.25-37.07-7.43-54.23-8.78-15.55-21.08-27.7-35.42-38-4.12-2.96-8.43-5.67-12.64-8.51-.34-.23-.59-.58-.88-.87,2.78-.05,5.57-.19,8.35-.15,6.63.09,12.88-1.28,18.6-4.68,5.1-3.04,9.09-7.27,12.5-12.08.27-.38.39-.87.58-1.31,1.98-.51,3.93-1.18,5.94-1.51,6.64-1.11,12.13,2.82,13.2,9.44,1,6.13-1.56,11.13-5.16,15.78-.41.53-.64,1.2-.95,1.8l.02-.07c-.16-.02-.31-.03-.47-.05,0,.16.01.32.02.47h0s-.62.02-.62.02c.06.15.13.3.19.45,0,.15-.01.3-.02.44.55.06,1.1.13,1.66.17,3.34.2,6.77-.03,10,.67,9,1.93,13.62,9.32,11.8,18.34-1.66,8.23-6.69,14.24-12.96,19.41-.52.43-.95.96-1.42,1.44,0,0,.02-.03.02-.03-.16.14-.31.28-.46.42,0,0,0,0,0,0-.22,0-.44,0-.66,0,.07.14.14.29.22.43-.39.26-.77.51-1.39.92.84.09,1.45.15,2.06.22.2.17.37.43.6.5,3.92,1.1,6.84,3.53,9.07,6.83,2.94,4.35,4.22,9.26,4.26,14.43.13,15-6.35,26.89-17.52,36.5-.52.44-.94,1-1.41,1.5-.73.05-1.45.1-2.18.15"/>
            <path class="cls-14" d="M524.04,751.08c.36-.21.72-.42,1.19-.7-2.29-3.72-2.45-7.9-2.5-12.09-.1-7.99.48-15.92,2.05-23.78.82-4.1,1.23-8.28,1.83-12.42,1.36,0,2.72.07,4.08-.03,3.71-.28,5.22-1.79,5.92-5.46,1.51-7.98,2.87-16,4.73-23.9,1.93-8.22,4.49-16.28,9.8-23.1,2-2.57,4.31-4.8,7.75-5.34,1.71.66,3.43,1.33,5.14,1.99-1.07,1.4-2.15,2.81-3.22,4.21-1.85.32-4.01.12-5.49,1.04-4.42,2.75-5.94,9.97-3.43,14.56,1.2,2.2,3.88,3.39,6.19,2.46,3.72-1.5,5.64-4.41,5.97-8.39,1.86-2.2,3.72-4.39,5.58-6.59,2.63,9,2.2,18.25,2.2,27.46h0c-.1.12-.2.25-.3.39-.6,5.71-1.15,11.43-1.83,17.13-.52,4.36-1.23,8.7-1.85,13.05-.25.55-.6,1.08-.74,1.66-2.4,9.8-5.06,19.51-10.29,28.27-1.2,2.01-2.65,3.91-4.15,5.71-2.86,3.42-6.72,4.87-11.06,4.76-5.86-.14-11.71-.57-17.57-.88"/>
            <path class="cls-8" d="M479.72,410.22c-3.36,5.36-5.87,11.11-7.7,17.16-.39,1.01-.79,2.02-1.18,3.03-1.82-2.79-3.63-5.58-5.45-8.36-.26-.4-.61-.75-.91-1.12-.85-1.49-1.87-2.91-2.51-4.49-.47-1.16-.88-2.63-.58-3.77,3.68-13.9,9.12-27.01,17.69-38.68,9.49-12.92,21.39-22.72,36.73-27.91,6.36-2.15,12.9-3.35,19.67-2.22,2.67.44,4.81,1.61,6.51,3.77,2.4,3.03,4.95,5.94,7.44,8.91.22.48.43.97.65,1.45-.4.15-.78.36-1.2.45-13.35,3.02-25.74,8.3-37.17,15.81-13.88,9.11-24.92,20.79-31.99,35.97"/>
            <path class="cls-21" d="M514.99,509.71c-5.67-3.77-11.63-6.81-18.54-7.5.44-5.71.89-11.42,1.33-17.13,4.62,3.63,9.95,5.05,15.73,5.22,7.11.21,14.06-.63,20.93-2.5,8.18-2.23,16-5.2,22.72-10.49,3.77-2.97,7.36-6.24,7.5-11.64,1.12.23,2.24.45,3.36.68,2.71,1.83,5.41,3.66,8.12,5.49.18.76.35,1.52.55,2.27,1.25,4.66,2.52,9.32,3.78,13.98-1.02-.7-2.03-1.4-3.05-2.11.86,2.53,2.02,4.75,3.24,6.94.33.6.84,1.09,1.27,1.63.09.26.18.52.28.78-.59,1.18-1.04,2.33.57,3.1.09.27.18.54.27.81-.17.45-.38.9-.51,1.36-1.3,4.63-3.56,5.9-7.65,3.4-3.9-2.39-7.32-5.56-10.89-8.47-1.56-1.27-2.95-2.75-4.53-4.23,1,3.3,2.25,6.4,2.84,9.62.62,3.38,1,6.91.77,10.32-.28,4.09-2.76,5.34-6.63,3.94-.66-.24-1.24-.69-1.85-1.07-4.65-2.93-8.43-6.81-11.94-10.99-1.43-1.7-2.93-3.33-4.4-4.99.23,2.37,1.18,4.53,1.19,6.69.01,3.87.47,7.72-.62,11.66-1.64,5.91-4.03,7.74-9.64,6.11,0,0,.02,0,.02,0-.18-.14-.36-.28-.54-.42-1.25-1.33-2.5-2.66-3.75-3.98-.27-.27-.54-.54-.8-.81l-.03-.03c-.1-.41-.13-.86-.32-1.22-1.95-3.67-3.92-7.33-5.9-10.99-.43-.79-.94-1.53-1.58-2.56-.47,2.7-.86,4.92-1.25,7.13"/>
            <path class="cls-30" d="M455.55,547.07c-.16.74-.24,1.51-.5,2.21-2.34,6.34-4.4,12.75-4.83,19.55-.12,1.85-.07,3.75.22,5.57.8,5,4.13,7.44,9.08,6.39,7.22-1.52,13.46-4.82,17.92-10.95,1.07-1.48,2.22-2.9,3.76-4.14-1.26,2.27-2.21,4.8-3.84,6.76-3.43,4.11-7.06,8.09-10.92,11.81-4.46,4.3-7.77,9.2-9.28,15.19-1.09,4.32.82,7.44,5.21,7.9,3.43.36,7.12.37,10.41-.5,6.13-1.62,12.06-3.99,18.07-6.05-.3.82-.54,1.66-.91,2.44-.47.99-1.06,1.92-1.6,2.88-3.86,4.77-5.94,10.28-6.41,16.34-.54,6.96,3.49,12.43,10.54,14.59,6.25,1.92,12.61,1.65,18.95.63,3.6-.58,7.15-1.47,10.72-2.21-.52.37-.98.85-1.55,1.11-8.43,3.77-16.87,7.52-25.32,11.23-.96.42-2.05.55-3.07.82-1.62-.26-3.25-.48-4.86-.8-6.09-1.22-11.91-3.1-16.66-7.33-4.6-4.09-5.67-9.22-2.95-14.71,1.03-2.09,2.53-3.95,3.81-5.92h-.04c.29-.28.58-.58.87-.88.46-.54.93-1.07,1.39-1.61.08-.1.15-.19.23-.29-.15.03-.29.05-.44.08-3.81,1.24-7.61,2.47-11.42,3.71-4.24.43-8.51,1.43-12.71,1.16-5.53-.36-8.06-4.15-6.38-9.48,1.27-4.02,3.55-7.74,5.56-11.49.99-1.86,2.38-3.51,3.59-5.25l-.05-.04c.15-.15.29-.3.44-.45h-.02c.22-.14.45-.29.67-.45,2.69-2.96,5.38-5.92,8.07-8.88.16-.12.32-.25.48-.37-.23.04-.45.09-.68.13-.7.29-1.39.59-2.09.88-.15.16-.31.32-.46.48l.03-.03c-.29.14-.59.29-.88.43l-.05-.04c-2.56.51-5.11,1.22-7.7,1.5-4.32.46-7.41-1.73-8.33-5.97-.46-2.13-.59-4.4-.4-6.57.28-3.18.99-6.32,1.52-9.48,2.16-3.34,4.31-6.69,6.46-10.03,2.12-3.29,4.24-6.58,6.35-9.87"/>
            <path class="cls-35" d="M567.85,711.56c.62-4.35,1.32-8.69,1.85-13.05.68-5.7,1.23-11.42,1.83-17.13.1-.13.2-.26.3-.4h0c.61-.15,1.26-.23,1.84-.49,10.37-4.61,20.51-9.66,29.91-16.06,3.58-2.44,7.07-5.02,10.61-7.53,2.47,12.34,2.54,24.58-1.82,36.57-1.72,4.74-4.06,9.14-7.74,12.69-.56.54-1.17,1.05-1.82,1.5-2.36,1.63-4.79,2.64-7.49.27-.55,2.5-1.04,4.77-1.54,7.05-.48.6-.99,1.19-1.44,1.82-1.63,2.31-3.59,3.18-6.31,2.47-1.21-.32-2.29-1.09-3.43-1.65-1.73-2.39-3.46-4.77-5.13-7.08-.61,1.49-2.07,2.77-4.14,2.53-1.85-.21-3.64-.99-5.46-1.52"/>
            <path class="cls-33" d="M397.43,691.33c-.82.18-1.68.26-2.45.57-10.47,4.19-21.09,7.98-32.22,9.96-16.33,2.91-31.73.48-45.73-8.81-1.51-1-2.82-2.45-3.91-3.92-1.16-1.57-.62-2.52,1.34-2.69,6.42-.56,12.86-.96,19.28-1.58,12.4-1.2,24.82-2.28,37.17-3.86,9.63-1.23,19.18-3.14,28.76-4.76.41-.07.79-.29,1.18-.44.7-.1,1.43-.13,2.11-.31,13.53-3.6,27.05-7.22,40.57-10.84-.15.71-.29,1.41-.44,2.12-.38.2-.79.36-1.13.61-10.62,7.69-22.3,13.49-34.12,19.01-3.48,1.63-6.94,3.3-10.4,4.95"/>
            <path class="cls-22" d="M580.46,488.09c-1.26-4.66-2.52-9.32-3.78-13.98-.2-.75-.37-1.52-.55-2.27,5.5.05,9.25,2.78,11.64,7.6.15.16.3.32.45.49v-.02c1,4.75,2,9.49,3,14.24,1.02,5.76,2.18,11.51,3.04,17.29.98,6.55,2.1,13.12,2.43,19.72.58,11.79,1.01,23.61.74,35.4-.18,8.1-1.53,16.2-2.58,24.26-.53,4.1-1.56,8.13-2.36,12.19-.44,1.79-.88,3.59-1.33,5.38-2.12,6.05-4.04,12.18-6.41,18.13-3.63,9.11-8.32,17.69-14.19,25.58-.34.46-.63.95-.94,1.43-1.86,2.2-3.72,4.39-5.58,6.59-.89.59-1.71,1.33-2.67,1.75-1.59.68-3.23.72-4.53-.7-1.22-1.34-1.11-2.88-.38-4.39.37-.76.9-1.45,1.39-2.15.97-1.4,1.97-2.78,2.95-4.18,1.07-1.4,2.15-2.81,3.22-4.21,10.87-16.13,17.57-33.91,21.13-52.95.07-.71.13-1.43.2-2.14.59-3.35,1.38-6.67,1.72-10.04.64-6.43,1.01-12.89,1.49-19.34-.01-1.56-.02-3.11-.03-4.67.04-.85.17-1.71.12-2.56-.61-10.81-1.25-21.61-1.88-32.42l-.83-5.1c-.97-5.92-1.95-11.84-2.92-17.77-.09-.27-.18-.54-.27-.81-.19-1.03-.38-2.07-.57-3.1-.09-.26-.18-.52-.28-.78-.49-2.16-.97-4.31-1.45-6.46"/>
            <path class="cls-6" d="M564.66,465.67c-.14,5.4-3.73,8.67-7.5,11.64-6.71,5.28-14.54,8.26-22.72,10.49-6.87,1.87-13.82,2.72-20.93,2.51-5.78-.17-11.11-1.59-15.73-5.22-.22-1.91-.44-3.81-.66-5.72-.26-4.95-1.83-9.54-4.51-13.63-2.1-3.21-4.68-6.12-7.23-9-2.42-2.73-5.19-5.15-7.61-7.87-4.33-4.88-6.52-10.66-6.74-17.19-.01-.42-.13-.84-.19-1.26.39-1.01.79-2.02,1.18-3.03.88,1.75,1.84,3.47,2.64,5.25,4.59,10.21,11.45,18.48,20.84,24.63,4.76,3.12,10.07,4.77,15.45,6.48,8.51,2.69,17.19,2.8,25.89,2.33,5.52-.3,10.91-1.79,15.99-4.16.71-.33,1.44-.62,2.17-.93,3.23,1.56,6.45,3.12,9.68,4.68"/>
            <path class="cls-8" d="M564.66,465.67c-3.23-1.56-6.45-3.12-9.68-4.68-5.65-4.11-6.75-10.21-7.22-16.57-.25-3.4-.46-6.8-.69-10.21.64-3.73.95-7.55,1.98-11.16,1.73-6.04,4.44-11.55,10.95-13.96.21-.08.24-.61.36-.94.88-.28,1.77-.57,2.65-.85,1.39-.18,2.78-.36,4.17-.54,1.97-.04,3.94-.07,5.91-.11,2.8.2,5.61.4,8.41.6,2.38.69,4.75,1.38,7.13,2.06,1.92,1.08,3.92,2.05,5.75,3.27,4.32,2.86,6.87,6.97,7.88,12.02.16.81.02,1.67.02,2.97-3.07-.24-6.02-.51-8.98-.7-1.77-.12-3.54-.13-5.31-.19-9.7-.6-17.36,4.2-24.87,9.39-.81.29-1.63.59-2.44.88-3.14,1.14-6.35,1.37-9.64.84l-2.23-1.56c1.6,6.99,4.96,12.79,10.65,17.07,5.4,4.06,11.58,5.18,18.2,4.75,5.44-.36,10.66-1.14,14.78-5.17-.02,3.34-1.93,5.57-4.48,7.32-5.06,3.48-10.84,4.82-16.82,5.57-1.05.13-2.08.38-3.12.57-1.12-.23-2.24-.45-3.36-.68M554.16,422.37c.54,1.11.95,1.96,1.36,2.8.82-.45,2.03-.7,2.39-1.39.93-1.8,1.62-3.77,2.12-5.74.15-.61-.46-1.83-1.03-2.08-.5-.22-1.76.32-2.1.88-1.05,1.73-1.82,3.63-2.74,5.54"/>
            <path class="cls-33" d="M479.72,410.22c7.07-15.18,18.11-26.86,31.99-35.97,11.43-7.5,23.82-12.79,37.17-15.81.41-.09.8-.3,1.2-.45,2.89-.33,5.78-.76,8.67-.97,8.54-.63,16.98-.23,24.95,3.28,2.08.92,3.83,2.55,5.74,3.86-.54.02-1.12.19-1.6.04-8.25-2.72-16.7-3.25-25.24-2.13-2.03.27-3.94,1.41-5.9,2.15-1.04.14-2.16.07-3.11.44-8.75,3.41-16.08,8.9-22.66,15.5-5.1,5.11-10.33,10.1-15.48,15.16-.53.53-.92,1.21-1.37,1.81l-11.15,8.34c-2.91,1.46-5.76,3.06-8.75,4.34-4.72,2.01-9.57,2.71-14.46.42"/>
            <path class="cls-18" d="M594.57,720.96c.61,4.17,1.26,8.34,1.82,12.52,1.06,7.95,2.11,15.91,3.07,23.87.19,1.61,1.26,1.66,2.37,1.89,9.11,1.9,18.25,3.7,27.33,5.76,3.4.77,6.7,2.07,9.99,3.28.98.36,1.77,1.21,2.91,2.03-2.52,1.75-4.86,1.28-7.03.96-5.24-.78-10.44-1.83-15.66-2.74-.82-.14-1.66-.11-2.75.35,2.25,1.68,4.55,3.3,6.74,5.05,3.75,2.99,7.48,6.01,11.12,9.13.89.76,1.56,1.88,2.08,2.96.73,1.53.09,2.42-1.62,2.15-1.61-.26-3.26-.68-4.73-1.37-9.34-4.39-18.64-8.87-27.95-13.32-6.11-2.92-6.08-2.9-11.01,1.83-2.12,2.03-4.39,3.9-6.6,5.83-.38.33-.8.61-1.25.84-1.71.89-3.76,2.31-5.29.73-.75-.78-.28-3.25.29-4.69,1.76-4.46,3.56-8.94,5.87-13.13,1.75-3.17,2.07-6.27,1.56-9.68-.2-1.34-.17-2.71-.25-4.07,3.56,1.02,7.04,1.08,10.17-1.22.7-.51,1.12-1.41,1.66-2.13-.18-.16-.37-.32-.55-.48-.37.14-.83.19-1.1.44-2.52,2.33-5.35,3.15-8.69,2.03-.47-.16-1.07.1-1.61.16-.54-5.38-1.11-10.76-1.61-16.15-.33-3.55-.54-7.1-.81-10.66,1.04.17,2.08.33,3.12.5,3.25.52,5.86-.97,8.4-2.66"/>
            <path class="cls-33" d="M357.54,567.74c-.31.43-.79.82-.92,1.3-3.77,14.05-7.5,28.11-11.22,42.18-.11.4-.04.85-.06,1.28-4.87-3.5-9.74-6.99-14.6-10.49-1.28-.92-2.45-2.02-3.83-2.75-2.59-1.36-3.44-3.22-3.16-6.19,1.15-12.08,1.64-24.25,4.79-36.06,1.59-5.95,3.12-6.8,8.29-3.63,6.75,4.14,13.17,8.8,19.72,13.26.4.27.67.73,1,1.1"/>
            <path class="cls-26" d="M409.11,599.62c.27-.46.55-.92.82-1.37,1.87-1.41,3.74-2.83,5.61-4.24-.01.93-.03,1.85-.03,2.78-.05,5.59,2.7,8.57,8.26,8.29,2.96-.15,5.92-.97,8.81-1.74,2.4-.64,4.69-1.64,7.04-2.48-.39.38-.76.79-1.17,1.15-1.44,1.25-2.89,2.48-4.33,3.72-3.99,3.56-8.1,6.99-11.9,10.73-1.53,1.51-2.63,3.59-3.49,5.6-1.43,3.35-.26,5.85,3.1,7.27.98.41,2.04.74,3.09.87,9.1,1.16,17.96-.13,26.69-2.7.52.08,1.04.15,1.63.24-.47.71-.85,1.3-1.23,1.88-3.81,2.8-6.63,6.48-8.95,10.52-5.04,8.8-2.26,15.36,7.55,18.01,1.77.48,3.58.85,5.37,1.27-4.04.85-8.08,1.7-12.11,2.54l-3.42.13c-4.41-1.33-8.74-2.84-12.21-6.04-3.37-3.11-4.02-6.87-1.34-10.58,1.73-2.4,4.11-4.34,6.23-6.45.48-.48,1.09-.84,1.81-1.38-3.29.51-6.22,1.11-9.18,1.4-4.69.46-9.41.89-14.12.99-2.01.04-4.13-.55-6.05-1.25-2.87-1.05-3.99-3.35-2.95-6.2.72-1.98,1.74-4,3.14-5.55,2.91-3.24,6.14-6.19,9.29-9.22,1.41-1.36,2.94-2.6,4.41-3.9l-.05-.04c.36-.15.72-.3,1.08-.46.8-.69,1.61-1.38,2.41-2.07l.05-.02c.63-.3,1.27-.61,1.9-.91-.07-.17-.14-.34-.21-.51-.76.25-1.53.49-2.29.74-2.76.38-5.51,1.04-8.27,1.08-4.58.07-6.76-2.72-6.1-7.28.21-1.46.46-2.92.69-4.37l-.02.02c.15-.15.31-.31.46-.46"/>
            <path class="cls-18" d="M476.67,740.83c3.47,1.01,6.93,2.03,10.4,3.05.61.18,1.23.37,1.84.55-.35,3.39-.69,6.78-1.04,10.17-.64,0-1.33-.12-1.92.05-3.22.95-5.89.02-8.27-2.18-.28-.26-.81-.27-1.33-.42.35,2.38,2.69,4.2,5.51,4.24,1.98.03,3.97-.27,5.96-.42-.13,1.93,0,3.91-.45,5.77-.66,2.76.33,4.94,1.48,7.31,2.44,5.02,4.66,10.14,6.84,15.28.39.93.12,2.15.15,3.24-1.1-.1-2.44.17-3.27-.36-3.67-2.33-7.72-4.39-10.65-7.48-3.49-3.68-6.54-4.04-11.01-2.09-8.99,3.91-18.2,7.32-27.34,10.88-1.46.57-3.01,1.03-4.55,1.22-1.08.13-2.23-.27-3.36-.44.43-1.06.62-2.34,1.34-3.15,1.23-1.37,2.69-2.59,4.23-3.61,4.47-2.97,9.04-5.81,13.56-8.71.82-.53,1.61-1.12,2.35-1.91-7.13-.59-14.23,2.58-21.28.36-.07-.28-.13-.56-.2-.85.81-.46,1.58-1.13,2.45-1.33,6.49-1.46,12.97-2.95,19.5-4.19,4.64-.88,9.33-1.49,14.03-1.96,1.87-.19,2.15-1.14,2.33-2.58.73-5.9,1.49-11.79,2.25-17.68.12-.92.3-1.84.46-2.75"/>
            <path class="cls-5" d="M673.44,542.4c2.45-.9,5.05-1.52,7.32-2.75,4.93-2.67,9.7-5.66,14.53-8.51,1.66.31,3.31.62,4.97.93,12.51,2.36,18.21,10.03,16.24,21.86-7,11.55-15.75,21.59-26.46,29.81-5.37,4.12-11.07,7.82-16.66,11.66-.6.41-1.43.5-2.15.73.49-.51.97-1.02,1.46-1.53,5.09-5.24,10.36-10.32,15.23-15.76,3.83-4.28,6.86-9.2,8.48-14.82,1.96-6.79,0-12.26-6.02-15.9-2.55-1.54-5.4-2.64-8.24-3.59-2.83-.94-5.8-1.45-8.71-2.14"/>
            <path class="cls-5" d="M687.25,477.78c6.47,1.51,12.94,3.02,19.4,4.54,1.42.33,2.84.71,4.25,1.07,1.67,8.71.72,17.06-3.32,25.01-.27.52-.35,1.14-.52,1.72v-.02c-.15.17-.31.34-.47.5-1.72,1.74-3.44,3.48-5.16,5.22-5.47,5.55-11.41,10.52-17.91,14.81-.6.39-1.39.49-2.09.73.72-.79,1.44-1.58,2.17-2.36,4.47-4.83,8.24-10.1,9.85-16.61,2.12-8.59-1.83-14.8-10.47-16.36-1.88-.34-3.87-.47-5.76-.29-3.54.34-7.06.99-10.59,1.51.31-.41.54-.97.95-1.21,7.83-4.72,14.36-10.83,19.67-18.26"/>
            <path class="cls-33" d="M447.7,680.44c-.43,2.17-.86,4.34-1.29,6.52-.62.58-1.25,1.17-1.87,1.75-7.27,6.85-14.68,13.53-23.15,18.91-1.12.71-2.19,1.51-3.29,2.26-3.25,1.21-6.45,2.62-9.77,3.59-7.51,2.2-15.16,2.83-22.87,1.1-1.44-.32-2.87-.9-4.15-1.63-1.77-1.01-1.67-1.91.17-2.81,6.79-3.29,13.6-6.55,20.38-9.85.6-.29,1.08-.8,1.61-1.21.8-.27,1.64-.44,2.39-.81,13.14-6.48,25.86-13.71,38.11-21.75,1.24,1.31,2.48,2.62,3.72,3.93"/>
            <path class="cls-26" d="M673.44,542.4c2.91.7,5.88,1.2,8.71,2.14,2.83.95,5.69,2.05,8.24,3.59,6.03,3.64,7.98,9.1,6.02,15.9-1.62,5.62-4.65,10.53-8.48,14.82-4.87,5.44-10.14,10.52-15.23,15.76-.49.51-.97,1.02-1.46,1.53-3.72,2.11-7.43,4.22-11.15,6.32.47-.5.89-1.06,1.41-1.5,11.18-9.61,17.65-21.5,17.52-36.5-.04-5.17-1.33-10.08-4.26-14.43-2.23-3.3-5.15-5.74-9.07-6.83-.23-.06-.4-.33-.6-.5,2.79-.09,5.57-.19,8.36-.28"/>
            <path class="cls-5" d="M439.61,600.86c-2.34.84-4.64,1.85-7.04,2.48-2.89.77-5.85,1.59-8.81,1.74-5.56.27-8.31-2.7-8.26-8.29,0-.93.02-1.85.03-2.78,2.38-2.14,4.86-4.18,7.13-6.43,5.4-5.35,10.72-10.79,16.02-16.24.92-.95,1.53-2.2,2.4-3.22.42-.49,1.09-.77,1.65-1.15-.53,3.16-1.23,6.3-1.52,9.48-.19,2.17-.06,4.45.4,6.57.92,4.24,4.01,6.43,8.33,5.97,2.59-.27,5.13-.98,7.69-1.49-.39.45-.72,1.01-1.19,1.35-5.16,3.68-10.34,7.33-15.52,10.99-.3.21-.59.43-.89.64l.02-.03c-.15.15-.3.29-.46.44v-.04"/>
            <path class="cls-26" d="M666.63,497.26c3.53-.52,7.04-1.17,10.59-1.51,1.9-.18,3.88-.05,5.76.29,8.64,1.56,12.59,7.77,10.47,16.36-1.61,6.52-5.38,11.78-9.85,16.61-.72.78-1.44,1.57-2.17,2.36-4.46,4.39-10.07,6.87-15.63,9.43-.13.06-.34-.05-.51-.08.47-.48.9-1.01,1.42-1.44,6.27-5.17,11.3-11.18,12.96-19.41,1.82-9.02-2.8-16.42-11.8-18.34-3.23-.69-6.66-.47-10-.67-.55-.03-1.1-.11-1.66-.17,3.47-1.15,6.93-2.29,10.4-3.44"/>
            <path class="cls-4" d="M647.41,467.93c-6.83-1.59-13.66-3.16-20.48-4.77-4.74-1.12-9.47-2.32-14.2-3.48.49-.27.97-.59,1.48-.81,8.86-3.83,17.73-7.65,26.6-11.46,5.84-2.51,11.69-4.98,17.54-7.47-1.94,5.64-3.83,11.3-5.85,16.92-1.2,3.34-2.64,6.59-3.97,9.88-.37.4-.74.8-1.11,1.2"/>
            <path class="cls-33" d="M363.81,655.56c10.58-.29,21.16-.58,31.75-.87-.37.43-.74.86-1.11,1.3-2.4,2.9-1.82,5.51,1.62,7,1.24.53,2.57,1.09,3.88,1.16,6.2.35,12.4.54,18.61.79-.22.17-.41.43-.66.49-4.7,1.19-9.38,2.46-14.11,3.5-3.39.75-6.85,1.19-10.28,1.76-3.34-.3-6.7-.43-10.01-.92-7.28-1.08-14.1-3.48-20.15-7.79-.47-.33-1-.64-1.32-1.08-1.08-1.5-2.07-3.07-3.1-4.61l4.88-.75"/>
            <path class="cls-33" d="M383.81,552.25c-2.31.93-4.65,1.77-6.92,2.79-4.44,2.01-8.84,4.11-13.24,6.2-.42.2-.74.61-1.11.93-3.17-3.75-6.34-7.5-9.49-11.27-1.08-1.29-.35-2.29.72-3.04,4.9-3.45,9.82-6.86,14.76-10.25,1.34-.92,2.77-1.72,4.38-2.71,3.03,4.69,6.04,9.34,9.03,14.01.69,1.07,1.25,2.22,1.87,3.34"/>
            <path class="cls-24" d="M443.97,676.51c-12.25,8.04-24.96,15.27-38.11,21.75-.75.37-1.59.54-2.39.81-2.02-2.58-4.03-5.16-6.05-7.74,3.47-1.65,6.92-3.33,10.4-4.95,11.83-5.53,23.5-11.32,34.12-19.01.34-.25.75-.41,1.13-.61.29,3.25.59,6.5.88,9.76"/>
            <path class="cls-26" d="M647.41,467.93c.37-.4.74-.8,1.11-1.2,4.1-2.5,8.12-5.12,13.02-5.89,5.84-.92,9.98,2.17,10.67,8.06.53,4.47-.42,8.72-2.05,12.82-1.21,3.05-2.71,5.98-4.09,8.96-2.22,3.71-5.05,6.79-8.97,8.76.31-.6.54-1.27.95-1.8,3.6-4.65,6.16-9.66,5.16-15.78-1.08-6.62-6.57-10.55-13.21-9.44-2.01.34-3.96,1-5.94,1.51,1.12-2,2.23-4,3.35-6"/>
            <path class="cls-19" d="M418.09,709.88c1.1-.76,2.17-1.55,3.29-2.26,8.47-5.38,15.88-12.06,23.15-18.91.62-.59,1.25-1.17,1.87-1.75-.39,4.75-1.11,9.5-1.08,14.25.03,5.04.75,10.07,1.17,15.11-9.15-.06-18.02-1.57-26.44-5.27-.69-.31-1.32-.77-1.97-1.17"/>
            <path class="cls-13" d="M556.7,364.22c1.96-.74,3.87-1.88,5.9-2.15,8.54-1.13,17-.6,25.25,2.13.48.16,1.06-.02,1.6-.04,3.53,4,3.97,6.44,1.5,9.47-.93,1.15-2,2.35-3.28,3.01-2.87,1.48-5.92,2.65-8.89,3.94-2.46-2.57-4.8-5.26-7.41-7.67-4.25-3.92-9.35-6.5-14.66-8.68"/>
            <path class="cls-26" d="M716.51,553.93c1.97-11.82-3.73-19.5-16.24-21.86-1.66-.31-3.31-.62-4.97-.93,3.25-2.22,6.5-4.45,9.75-6.67.49-.05,1-.06,1.48-.16,7.44-1.47,14.1-.3,19.36,5.66-.36,2-.39,4.13-1.14,5.97-2.36,5.82-4.98,11.54-7.53,17.28-.13.29-.47.48-.72.71"/>
            <path class="cls-34" d="M745.78,430.44c1.17,1.67,2.23,3.44,3.54,4.99,7.5,8.87,15.1,17.66,22.59,26.54,6.29,7.46,12.42,15.06,18.72,22.51,4.37,5.17,8.91,10.2,13.38,15.3-.18,1.26-.3,2.54-.6,3.78-.06.25-.8.34-1.22.5-1.15-1.51-2.25-3.07-3.47-4.53-3.3-3.94-6.64-7.83-9.97-11.74-5.72-6.72-11.47-13.43-17.17-20.18-4.82-5.72-9.55-11.52-14.37-17.25-3.63-4.31-7.37-8.53-10.99-12.85-1.54-1.84-2.87-3.84-4.3-5.77,1.29-.43,2.57-.87,3.86-1.3"/>
            <path class="cls-19" d="M563.12,436.07c7.51-5.19,15.17-9.99,24.87-9.39-1.18,6.92-2.62,13.75-7.23,19.4-.54.66-1.1,1.31-1.65,1.96-1.4-.53-2.85-.94-4.19-1.6-4.87-2.38-8.53-6.16-11.81-10.37"/>
            <path class="cls-33" d="M343.65,621.95c.12,7.27.24,14.54.37,21.81-3.72-2.37-7.54-4.59-11.11-7.16-2.69-1.93-3.07-5.15-3.01-8.14.09-4.55.63-9.09,1.04-14.33,4.61,2.83,8.66,5.33,12.72,7.82"/>
            <path class="cls-24" d="M393.51,670.7c3.43-.58,6.89-1.02,10.28-1.76,4.73-1.04,9.41-2.31,14.11-3.5.24-.06.44-.32.66-.49,4.17-.4,8.36-.69,12.51-1.22,3.14-.4,6.25-1.08,9.38-1.64,1.14-.04,2.28-.09,3.42-.13-.11.9-.23,1.79-.34,2.69-13.52,3.62-27.04,7.24-40.57,10.84-.68.18-1.4.21-2.11.31.62-.82.25-1.04-.58-1.44-2.3-1.11-4.51-2.42-6.75-3.65"/>
            <path class="cls-5" d="M725.9,529.97c-5.26-5.96-11.93-7.13-19.36-5.66-.49.1-.99.11-1.48.16.51-.68.91-1.49,1.55-2.02,4.56-3.76,9.08-7.58,13.8-11.13,2.63-1.98,4.27-1.28,5.19,1.92,1.59,5.53,1.75,11.13.3,16.73"/>
            <path class="cls-25" d="M563.12,436.07c3.28,4.21,6.94,8,11.81,10.37,1.34.65,2.79,1.07,4.19,1.6,3.22.73,6.42,1.48,9.65,2.17,1.65.35,3.21.74,3.68,2.67-4.12,4.03-9.35,4.81-14.78,5.17-6.62.44-12.8-.68-18.2-4.75-5.69-4.28-9.05-10.08-10.65-17.07.74.52,1.49,1.04,2.23,1.56,1.6,2.47,3.19,4.93,4.79,7.4,3.46,4.86,8.1,8.08,13.78,9.83,6.83,2.35,17.39.78,19.49-3.12-.9-.13-1.71-.25-2.52-.36-10.58-1.4-19.6-5.58-25.9-14.59.81-.29,1.63-.59,2.44-.88"/>
            <path class="cls-34" d="M658.34,439.93c-5.85,2.49-11.7,4.97-17.54,7.47-8.87,3.81-17.74,7.63-26.6,11.46-.51.22-.99.54-1.48.81.31-1.7.62-3.41.93-5.11,2.44-.89,4.91-1.69,7.3-2.68,6.51-2.69,13-5.43,19.47-8.22,5.55-2.4,11.05-4.91,16.59-7.35.71-.31,1.49-.47,2.24-.7-.3,1.44-.61,2.88-.91,4.32"/>
            <path class="cls-22" d="M497.12,479.35c.22,1.91.44,3.82.66,5.72-.44,5.71-.89,11.42-1.33,17.13-3.32.34-6.63.68-9.95,1.01,1.03-2.65,1.94-5.36,3.11-7.95,2.42-5.34,4.99-10.62,7.5-15.92"/>
            <path class="cls-21" d="M591.22,494.14c-1-4.75-2-9.49-3-14.24,5.4,2.12,10.26,4.88,12.53,10.68-.19,3.87-1.06,4.55-5.11,4.04-1.47-.18-2.94-.32-4.41-.48"/>
            <path class="cls-26" d="M707.06,510.12c.17-.57.25-1.19.52-1.72,4.04-7.95,5-16.3,3.32-25.01,2.02.43,4.05.85,6.07,1.28-.07.7-.05,1.44-.24,2.11-1.62,5.63-3.28,11.25-4.93,16.87-1.58,2.16-3.17,4.31-4.75,6.47"/>
            <path class="cls-5" d="M711.81,503.65c1.65-5.62,3.31-11.24,4.93-16.87.19-.67.16-1.41.24-2.11,2,.44,4.01.88,6.01,1.32-.83,1.87-1.47,3.86-2.54,5.58-2.41,3.87-5.03,7.62-7.6,11.39-.22.32-.68.46-1.03.69"/>
            <path class="cls-18" d="M582.59,717.62c1.14.56,2.23,1.34,3.43,1.65,2.72.71,4.68-.16,6.31-2.47.45-.63.96-1.21,1.44-1.82.19,1.33.37,2.67.56,4-.55.29-1.21.46-1.63.88-1.61,1.61-3.53,2.28-5.76,2.07-1.32-.12-2.64-.31-3.96-.47-.13-1.28-.25-2.57-.38-3.85"/>
            <path class="cls-15" d="M582.97,721.47c1.32.16,2.64.35,3.96.47,2.23.2,4.15-.46,5.76-2.07.42-.42,1.08-.6,1.63-.88.08.66.16,1.32.25,1.98-2.55,1.69-5.16,3.18-8.4,2.66-1.04-.17-2.08-.33-3.12-.5-.04-.11-.07-.21-.07-.33-.05-.2-.1-.39-.15-.59.04-.24.09-.49.13-.73"/>
            <path class="cls-21" d="M585.47,749.93c.54-.06,1.14-.32,1.61-.16,3.34,1.11,6.17.29,8.69-2.03.27-.25.73-.3,1.1-.44.18.16.37.32.55.48-.55.72-.96,1.62-1.66,2.13-3.13,2.3-6.61,2.24-10.17,1.22-.04-.4-.07-.8-.11-1.2"/>
            <path class="cls-21" d="M487.81,755.87c-1.99.15-3.97.45-5.96.42-2.82-.04-5.16-1.86-5.51-4.24.52.16,1.05.16,1.33.42,2.38,2.2,5.05,3.14,8.27,2.18.6-.18,1.28-.04,1.92-.05-.02.42-.04.85-.06,1.27"/>
            <path class="cls-26" d="M664.42,541.54c-.07-.14-.15-.29-.22-.43.22,0,.44,0,.66,0-.15.14-.29.29-.44.43"/>
            <path class="cls-28" d="M828.47,395.16c0-.19,0-.37,0-.56,0,.19,0,.37,0,.56"/>
            <path class="cls-26" d="M706.59,510.6c.16-.17.32-.34.48-.5-.16.17-.32.34-.48.5"/>
            <path class="cls-30" d="M456,546.42c-.16.23-.31.46-.47.68.16-.23.31-.46.47-.68"/>
            <path class="cls-21" d="M588.22,479.92c-.15-.16-.3-.32-.45-.49.15.16.3.32.45.49"/>
            <path class="cls-26" d="M664.85,541.11c.16-.14.31-.28.47-.42-.16.14-.31.28-.47.42"/>
            <path class="cls-18" d="M582.83,722.2c.05.2.1.39.15.59-.05-.2-.1-.39-.15-.59"/>
            <path class="cls-19" d="M585.16,593.29c-3.57,19.04-10.27,36.82-21.13,52.95-1.71-.66-3.43-1.33-5.14-1.99-.59-.46-1.11-1.04-1.76-1.38-9.17-4.69-18.96-7.74-28.8-10.61,4.06-3.16,8.35-6.06,12.14-9.52,10.2-9.29,16.45-20.56,16.82-34.73.29-11.01-2.59-21.25-7.06-31.12-5.05-11.13-11.23-21.59-18.8-31.22-.79-1-1.5-2.05-2.25-3.08,5.61,1.62,8.01-.21,9.64-6.11,1.09-3.94.63-7.79.62-11.66,0-2.16-.96-4.32-1.19-6.69,1.47,1.66,2.97,3.3,4.4,4.99,3.51,4.18,7.29,8.05,11.94,10.99.6.38,1.19.83,1.85,1.07,3.87,1.41,6.36.15,6.63-3.94.23-3.41-.15-6.94-.77-10.32-.59-3.22-1.83-6.32-2.83-9.62,1.58,1.49,2.97,2.96,4.53,4.23,3.57,2.91,6.99,6.09,10.89,8.47,4.1,2.51,6.36,1.23,7.65-3.4.13-.46.34-.91.51-1.36.97,5.92,1.95,11.84,2.92,17.77-.72,0-1.44-.04-2.15.04-2.35.26-4.03,1.9-4.24,4.13-.43,4.55,1.58,8.34,3.64,12.11-.22-4.22-1.24-8.6,3.58-11.17.63,10.81,1.26,21.61,1.88,32.42.05.85-.08,1.71-.12,2.56-4.91-.3-6.57.4-7.73,3.6-1.63,4.5-.17,8.78.93,13.53.5-2.86.72-5.25,1.36-7.54.75-2.7,2.3-4.79,5.48-4.92-.48,6.45-.86,12.91-1.49,19.34-.33,3.37-1.13,6.69-1.72,10.04-1.7-2.19-3.19-4.59-5.15-6.51-3.3-3.23-7.36-2.39-9.24,1.81-1.69,3.77-1.77,7.82-1.66,12.49,1.07-2.76,1.73-5,2.78-7.04,2.25-4.38,5.65-5.06,9.49-2,1.28,1.02,2.39,2.25,3.58,3.39M578.87,554.07c-.05-.03-.11-.06-.16-.08.01.06.02.12.05.17.02.03.08.03.12.04,0-.04,0-.09-.36-.24-2.71-4.42-6.04-8.29-11.73-9.17-2.95-.45-5.53.99-6.61,3.83-1.68,4.41-.46,8.62.83,12.85.28-.43.31-.89.43-1.32.56-2.05.91-4.2,1.78-6.12,1.89-4.15,5.45-5.37,9.58-3.4,1.98.94,3.81,2.21,6.05,3.45"/>
            <path class="cls-9" d="M528.31,632.26c9.85,2.87,19.63,5.92,28.8,10.61.65.33,1.18.91,1.76,1.38-3.44.54-5.75,2.77-7.74,5.34-5.31,6.82-7.87,14.88-9.8,23.1-1.86,7.9-3.21,15.92-4.73,23.9-.7,3.67-2.21,5.18-5.92,5.46-1.35.1-2.72.03-4.08.03-9.01-2.27-18.03-4.54-27.04-6.8-.41-.1-.85-.1-1.27-.15-.02-2.85-.05-5.71-.06-8.56,0-1.81-.41-3.4-2.22-4.29-5.27-2.59-10.91-3.7-16.69-4.23-1.36-.12-2.12.46-2.25,1.92-.25,2.91-.6,5.81-.91,8.72-8.6-2.51-17.2-5.01-25.8-7.52-.89-.26-1.78-.49-2.67-.73-1.24-1.31-2.48-2.62-3.72-3.93-.29-3.25-.59-6.5-.88-9.76.15-.71.29-1.41.44-2.12.11-.9.23-1.79.34-2.69,4.04-.85,8.08-1.7,12.11-2.54,2.23-.46,4.49-.81,6.67-1.41,6.84-1.9,13.69-3.81,20.47-5.89,3.09-.95,6.06-2.3,9.09-3.47,1.03-.26,2.12-.4,3.07-.82,8.46-3.71,16.89-7.46,25.32-11.23.57-.25,1.04-.73,1.55-1.11,2.05-1.07,4.1-2.14,6.15-3.22"/>
            <path class="cls-19" d="M514.99,509.71c.39-2.22.78-4.44,1.25-7.13.64,1.03,1.15,1.77,1.58,2.56,1.98,3.65,3.95,7.32,5.9,10.99.19.36.21.81.32,1.22-3.02-2.55-6.03-5.09-9.05-7.63"/>
            <path class="cls-24" d="M488.36,606.13c.54-.96,1.12-1.89,1.6-2.88.37-.78.61-1.63.91-2.44,1.11-1.28,2.26-2.52,3.31-3.85,1.58-2.01,3.07-4.08,4.97-5.96-.6,1.29-1.14,2.62-1.82,3.87-2.33,4.27-4.98,8.3-8.97,11.26"/>
            <path class="cls-19" d="M524.08,517.38c.27.27.54.54.8.81-.27-.27-.54-.54-.8-.81"/>
            <path class="cls-19" d="M528.64,522.18c.18.14.36.28.54.42-.18-.14-.36-.28-.54-.42"/>
            <path class="cls-30" d="M616.18,537.2c-2.13-3.29-3.58-6.79-3.51-10.79.05-3.01,1.75-5.1,4.69-4.98,5.58.22,9.71,3.36,13.86,7.64-2.82-.94-4.99-1.83-7.23-2.38-4.69-1.16-7.69,1.21-7.84,6.03-.04,1.5,0,3,.01,4.5h.01Z"/>
            <path class="cls-30" d="M630.26,554.98c-1.73-1.01-3.4-2.13-5.19-3-3.82-1.85-6.76-.63-8.12,3.36-.43,1.27-.6,2.63-.82,3.96-.21,1.24-.33,2.5-.55,4.22-1.46-4.55-2.18-8.72-1.11-13.01.8-3.2,3.36-4.73,6.52-3.88,4.45,1.19,7.27,4.33,9.45,8.17-.06.06-.12.12-.18.18"/>
            <path class="cls-30" d="M630.33,578.48c-.38-4.54-.57-9.05,1.71-13.13,1.98-3.54,4.81-3.99,8.03-1.52,3.11,2.4,4.86,5.59,5.98,9.78-2.02-1.84-3.5-3.53-5.29-4.74-3.23-2.17-6.03-1.43-7.82,2.05-.97,1.88-1.46,4-2.15,6.02-.17.51-.3,1.03-.45,1.54"/>
            <path class="cls-26" d="M621.53,584.64c-1.27-1.07-3.02-2.61-4.82-4.09-3.23-2.66-6.34-2.23-8.41,1.4-1.21,2.13-1.92,4.54-2.86,6.86-.19-3.84-.21-7.66,1.27-11.32,1.71-4.21,5.19-5.23,8.71-2.43,3.37,2.68,5.11,6.38,6.11,9.58"/>
            <path class="cls-26" d="M635.81,609.53c-1.48-1.8-2.85-3.72-4.48-5.37-2.74-2.78-5.46-2.68-7.82.44-1.52,2.01-2.53,4.4-3.71,6.52-.5-3.5,1.27-9.74,3.59-12.39,1.67-1.91,4.01-2.26,6.18-.92,2.64,1.63,4.03,4.2,5.08,6.98.57,1.52.96,3.1,1.44,4.66-.1.03-.19.06-.29.09"/>
            <path class="cls-26" d="M614.03,637.49c-1.02-1.45-1.99-2.93-3.06-4.35-3.45-4.57-7.42-4.42-10.4.46-1.02,1.68-1.76,3.52-2.79,5.24.28-4.09.89-8.1,3.18-11.58,2.21-3.35,5.48-3.61,8.34-.75,3.02,3.03,4.39,6.8,4.71,11l.02-.02Z"/>
            <path class="cls-30" d="M591.16,608.39c.44-1.79.88-3.59,1.33-5.38,1.39.8,3.13,1.3,4.1,2.45,2.52,2.99,4.03,6.51,4.08,10.53l.02-.02c-1.49-1.99-2.87-4.08-4.49-5.95-1.27-1.47-2.99-2.19-5.03-1.63"/>
            <path class="cls-30" d="M630.83,555.27c-.19-.1-.38-.19-.56-.29.06-.06.12-.12.18-.18.12.16.24.33.36.49l.02-.02Z"/>
            <polygon class="cls-30" points="646.04 573.98 646.14 573.94 646.12 574.05 646.04 573.98"/>
            <path class="cls-30" d="M630.8,555.29c.05.06.11.13.16.19-.04-.02-.09-.02-.11-.05-.02-.05-.02-.11-.03-.16,0,0-.02.02-.02.02"/>
            <path class="cls-30" d="M616.17,537.21l.19.18s-.1,0-.12-.03c-.03-.04-.04-.11-.06-.16h-.01"/>
            <path class="cls-30" d="M600.66,615.99s.1.05.15.07c-.04-.03-.08-.06-.13-.09l-.02.02"/>
            <path class="cls-26" d="M614.01,637.52c.05.02.11.05.16.07-.05-.03-.09-.06-.14-.1l-.02.02"/>
            <path class="cls-5" d="M666.12,417.14c.71-2.8,1.29-5.65,2.16-8.4,1.79-5.7,3.73-11.35,5.6-17.02,1.84-4.26,3.62-8.55,5.54-12.77.67-1.49,1.59-2.88,2.52-4.24,2.8-4.1,6.16-4.03,8.7.23,3.62,6.09,6.07,12.69,7.22,19.64.98,5.97,1.35,12.05,1.75,18.1.17,2.47-.29,4.99-.42,7.48-.04.69.08,1.38.13,2.08-.59,2.96-1.14,5.94-1.79,8.89-.25,1.11-.75,2.16-1.13,3.24-1.35-3.83-2.26-7.89-4.16-11.43-3.76-7.04-10.43-10.46-17.62-9.15-2.94.53-5.67,2.21-8.49,3.36"/>
            <path class="cls-5" d="M658.34,439.93c.3-1.44.61-2.88.91-4.32.95-2.43,1.91-4.86,2.86-7.3,5.05-2.38,9.86-1.53,14.25,1.5,8.16,5.64,12.7,13.61,14.37,23.31-.68,1.93-1.16,3.96-2.07,5.78-2.5,4.95-5.2,9.8-7.8,14.7-.26.48-.38,1.04-.56,1.57-.61.41-1.39.69-1.81,1.24-2.87,3.74-5.57,7.61-8.53,11.27-1,1.24-2.57,2.01-3.88,2.99,1.37-2.98,2.87-5.91,4.09-8.96,1.63-4.1,2.58-8.35,2.05-12.82-.69-5.89-4.84-8.98-10.68-8.06-4.9.77-8.92,3.39-13.02,5.89,1.33-3.29,2.76-6.54,3.97-9.88,2.03-5.61,3.91-11.27,5.85-16.92"/>
            <path class="cls-33" d="M690.72,453.12c-1.66-9.7-6.21-17.67-14.37-23.31-4.38-3.03-9.19-3.88-14.25-1.5.98-3.2,1.94-6.41,2.98-9.6.19-.57.68-1.05,1.03-1.57,2.83-1.15,5.56-2.83,8.49-3.36,7.2-1.31,13.87,2.11,17.62,9.15,1.89,3.54,2.8,7.61,4.16,11.43-.38,2.16-.57,4.37-1.18,6.45-1.09,3.75-2.42,7.43-3.69,11.13-.15.43-.53.78-.8,1.17"/>
            <path class="cls-3" d="M440.45,662.09c-3.12.56-6.23,1.24-9.38,1.64-4.16.53-8.34.82-12.51,1.22-6.2-.25-12.41-.44-18.61-.79-1.32-.07-2.65-.63-3.88-1.16-3.45-1.49-4.02-4.1-1.62-7,.36-.44.74-.87,1.11-1.3,5.22-4.02,11.14-6.73,17.22-9.13.39-.16.74-.42,1.11-.63.31-.07.61-.14.92-.22-.03-.1-.05-.19-.08-.28-.33.11-.66.21-1,.32-6.45,1.24-12.87,2.81-19.38,3.61-5.06.62-10.25.3-15.38.33-.68,0-1.4-.32-2.04-.61-2.41-1.07-3-2.88-1.1-4.65,3.55-3.3,7.2-6.56,11.14-9.36,7.11-5.06,14.47-9.78,21.73-14.65.43-.29.82-.63,1-1.39-1.23.48-2.44,1.04-3.7,1.41-3.76,1.12-7.5,2.33-11.32,3.13-1.18.25-3.1-.33-3.78-1.22-.66-.86-.57-2.79-.08-3.92.72-1.66,1.9-3.25,3.24-4.48,4.78-4.38,9.72-8.6,14.6-12.88-.23,1.46-.48,2.91-.69,4.37-.66,4.56,1.52,7.34,6.1,7.28,2.76-.04,5.51-.7,8.27-1.08.2.23.4.45.6.68,0,0-.05.02-.05.02-2,.87-4.01,1.74-6.01,2.61.07.15.14.3.2.45.79-.17,1.57-.33,2.36-.5-1.47,1.3-3,2.54-4.41,3.9-3.14,3.02-6.37,5.98-9.29,9.22-1.39,1.55-2.41,3.57-3.14,5.55-1.04,2.85.08,5.15,2.95,6.2,1.92.7,4.03,1.29,6.05,1.25,4.71-.1,9.42-.52,14.12-.99,2.96-.29,5.9-.89,9.18-1.4-.72.54-1.32.9-1.81,1.38-2.12,2.11-4.5,4.05-6.23,6.45-2.67,3.71-2.03,7.47,1.34,10.58,3.47,3.2,7.8,4.71,12.21,6.04M410.92,617.85c.16-.16.31-.32.47-.48-.24.07-.49.14-.73.22-.07.13-.13.27-.2.4.15-.05.31-.09.46-.14"/>
            <path class="cls-3" d="M409.11,599.62c-.15.15-.31.31-.46.46.15-.15.31-.31.46-.46"/>
            <path class="cls-2" d="M560.36,408.15c-.11.32-.15.86-.36.94-6.51,2.42-9.21,7.92-10.95,13.96-1.04,3.61-1.35,7.43-1.98,11.16-.85-2.41-1.94-4.77-2.49-7.25-1.33-5.94-1.77-12,.27-17.83.86-2.46,2.51-4.84,4.34-6.73,2.19-2.26,4.34-1.93,6.53.41,1.61,1.72,3.1,3.55,4.65,5.33"/>
            <path class="cls-23" d="M476.16,688.69c.31-2.91.66-5.81.91-8.72.13-1.47.89-2.05,2.25-1.92,5.79.53,11.43,1.64,16.69,4.23,1.81.89,2.21,2.48,2.22,4.29.01,2.85.04,5.71.06,8.56-.33,2.19-.63,4.38-1,6.56-.29,1.76-1.14,3.03-3.17,2.52-5.53-1.38-11.05-2.8-16.55-4.27-1.81-.48-1.7-2.18-1.72-3.54-.02-2.57.18-5.14.29-7.7"/>
            <path class="cls-26" d="M656.67,499.78c-.14.16-.28.31-.42.47-.06-.15-.13-.3-.19-.45l.62-.02Z"/>
            <path class="cls-26" d="M657.12,499.36c-.15.14-.3.28-.45.43,0-.16-.01-.32-.02-.47.16.02.31.03.47.05"/>
            <path class="cls-23" d="M560.8,650.45c-.99,1.39-1.98,2.78-2.95,4.18-.49.7-1.02,1.39-1.39,2.15-.73,1.51-.85,3.05.38,4.39,1.3,1.42,2.94,1.39,4.53.7.96-.41,1.79-1.15,2.67-1.75-.33,3.98-2.25,6.89-5.97,8.39-2.3.93-4.98-.26-6.19-2.46-2.51-4.59-.99-11.81,3.43-14.57,1.47-.92,3.64-.73,5.49-1.04"/>
            <path class="cls-19" d="M571.83,680.98c-.1.13-.2.26-.3.4.1-.13.2-.26.3-.4"/>
            <path class="cls-19" d="M580.46,488.09c.48,2.16.97,4.31,1.45,6.46-.43-.54-.93-1.04-1.26-1.63-1.22-2.19-2.38-4.41-3.24-6.94,1.02.7,2.03,1.4,3.05,2.11"/>
            <path class="cls-19" d="M582.19,495.34c.19,1.03.38,2.07.57,3.1-1.61-.77-1.15-1.93-.57-3.1"/>
            <path class="cls-5" d="M492.21,648.63c-3.03,1.17-6,2.52-9.09,3.47-6.79,2.08-13.63,4-20.47,5.89-2.19.61-4.45.95-6.67,1.41-1.79-.42-3.59-.79-5.37-1.27-9.81-2.65-12.59-9.21-7.55-18.01,2.32-4.04,5.14-7.72,8.95-10.52.47-.11.99-.12,1.41-.33,3.86-2.01,7.7-4.07,11.56-6.09,2.17-1.13,4.38-2.21,6.57-3.32-1.28,1.97-2.78,3.83-3.81,5.92-2.71,5.49-1.64,10.62,2.95,14.71,4.75,4.23,10.57,6.11,16.66,7.33,1.61.32,3.24.54,4.86.8"/>
            <path class="cls-5" d="M451.61,627.49c-8.73,2.56-17.59,3.86-26.69,2.7-1.05-.13-2.11-.46-3.09-.87-3.36-1.41-4.54-3.92-3.1-7.27.86-2.01,1.96-4.1,3.49-5.6,3.8-3.74,7.91-7.17,11.9-10.73,3.02-1.58,6.07-3.11,9.06-4.74,3.04-1.66,6.02-3.44,9.02-5.16-1.21,1.74-2.6,3.39-3.59,5.25-2.01,3.76-4.29,7.47-5.56,11.49-1.68,5.33.85,9.12,6.38,9.48,4.19.27,8.47-.73,12.71-1.16-.68.49-1.34,1.01-2.05,1.45-2.82,1.74-5.65,3.44-8.47,5.16"/>
            <path class="cls-24" d="M452.19,595.82c-3.01,1.73-5.99,3.5-9.02,5.16-2.99,1.64-6.04,3.17-9.06,4.74,1.44-1.24,2.89-2.47,4.33-3.72.41-.36.78-.76,1.17-1.15v.03c.14-.15.29-.29.44-.44l-.02.03c.3-.21.59-.43.89-.64,5.18-3.66,10.36-7.31,15.52-10.99.48-.34.8-.89,1.19-1.35,0,0,.05.04.05.04.29-.14.59-.29.88-.43l-.03.03c.15-.16.31-.32.46-.48.7-.29,1.39-.59,2.09-.88.07.08.13.16.2.24-2.69,2.96-5.38,5.92-8.07,8.88-.22.15-.45.31-.67.46,0,0,.02-.01.02-.01-.15.15-.29.3-.44.45l.05.04"/>
            <path class="cls-24" d="M451.61,627.49c2.83-1.72,5.66-3.43,8.47-5.16.71-.44,1.37-.96,2.05-1.45,3.81-1.24,7.61-2.47,11.42-3.71.07.07.14.14.21.21-.46.54-.93,1.07-1.39,1.61-.29.29-.58.59-.87.89h.04c-2.19,1.09-4.4,2.17-6.57,3.3-3.86,2.02-7.7,4.08-11.56,6.09-.42.22-.94.23-1.41.33.38-.58.76-1.16,1.23-1.88-.59-.09-1.11-.16-1.63-.24"/>
            <path class="cls-5" d="M471.5,619.88c.29-.3.58-.59.87-.89-.29.29-.58.59-.87.89"/>
            <path class="cls-5" d="M458.57,587.11c-.29.14-.59.29-.88.43.29-.14.59-.29.88-.43"/>
            <path class="cls-24" d="M461.1,585.77c.23-.04.45-.09.68-.13-.16.12-.32.24-.48.37-.06-.08-.13-.16-.2-.23"/>
            <path class="cls-5" d="M452.14,595.78c.15-.15.29-.3.44-.45-.15.15-.29.3-.44.45"/>
            <path class="cls-5" d="M459.01,586.65c-.15.16-.31.32-.46.48.15-.16.31-.32.46-.48"/>
            <path class="cls-5" d="M452.55,595.35c.22-.15.45-.31.67-.46-.22.15-.45.31-.67.46"/>
            <path class="cls-24" d="M473.55,617.17c.15-.03.29-.05.44-.08-.08.1-.15.19-.23.29-.07-.07-.14-.14-.21-.21"/>
            <path class="cls-26" d="M585.16,593.29c-1.19-1.14-2.3-2.37-3.58-3.39-3.84-3.06-7.24-2.38-9.49,2-1.05,2.04-1.71,4.29-2.78,7.04-.11-4.67-.03-8.72,1.66-12.49,1.88-4.2,5.94-5.04,9.24-1.81,1.96,1.92,3.45,4.32,5.15,6.51-.07.71-.14,1.43-.2,2.14"/>
            <path class="cls-30" d="M588.57,561.77c-3.18.13-4.73,2.22-5.48,4.92-.63,2.29-.86,4.68-1.36,7.54-1.1-4.75-2.56-9.04-.93-13.53,1.16-3.2,2.82-3.9,7.73-3.6.01,1.56.02,3.11.03,4.67"/>
            <path class="cls-26" d="M586.78,522.12c-4.82,2.58-3.8,6.96-3.58,11.17-2.06-3.77-4.07-7.56-3.64-12.11.21-2.23,1.88-3.87,4.24-4.13.71-.08,1.43-.03,2.15-.04.28,1.7.56,3.4.83,5.1"/>
            <path class="cls-15" d="M560.68,436.95c6.3,9,15.32,13.18,25.9,14.59.81.11,1.62.23,2.52.36-2.11,3.9-12.66,5.47-19.49,3.12-.11-.76-.09-1.56-.34-2.26-1.82-5.04-7.51-8.23-13.44-7.57-1.6-2.47-3.19-4.93-4.79-7.4,3.28.53,6.5.29,9.64-.84"/>
            <path class="cls-5" d="M567.18,406.76c-5.44-2.36-8.43-6.47-8.65-12.42-.13-3.54,1.2-6.54,4.4-8.25,3.2-1.72,6.42-1.06,9.34.88,5.8,3.85,7.68,12.03,3.88,17.08-.78,1.04-2.03,1.74-3.06,2.6-1.97.04-3.94.07-5.91.11M574.83,396.41c-.73-3.65-2.47-6.58-6.07-8-3.47-1.37-6.95.35-8.04,3.86-1.52,4.87,2.03,10.74,7.04,11.69,3.02.57,5.73-1.2,6.35-4.14,1.96-.93,2.04-1.31.71-3.41"/>
            <path class="cls-15" d="M554.16,422.37c.91-1.9,1.69-3.8,2.74-5.54.34-.56,1.6-1.1,2.1-.88.57.25,1.18,1.47,1.03,2.08-.5,1.97-1.19,3.94-2.12,5.74-.36.69-1.56.94-2.39,1.39-.41-.84-.82-1.69-1.36-2.8"/>
            <path class="cls-19" d="M419.46,613.9c-.79.17-1.57.33-2.36.5-.07-.15-.14-.3-.2-.45,2-.87,4.01-1.74,6.01-2.61-.8.69-1.61,1.38-2.41,2.07-.36.15-.72.3-1.08.46l.05.04Z"/>
            <path class="cls-19" d="M422.95,611.32c-.2-.23-.4-.45-.6-.68.76-.25,1.53-.49,2.29-.74.07.17.14.34.21.51-.63.3-1.26.61-1.9.91"/>
            <path class="cls-3" d="M419.41,613.87c.36-.15.72-.3,1.08-.46-.36.15-.72.3-1.08.46"/>
            <path class="cls-26" d="M440.92,599.84c-.3.21-.59.43-.89.64.3-.21.59-.43.89-.64"/>
            <path class="cls-26" d="M440.06,600.45c-.15.15-.3.3-.46.44.15-.15.3-.3.46-.44"/>
            <path class="cls-9" d="M555.83,445.19c5.93-.66,11.63,2.52,13.44,7.57.25.7.23,1.5.34,2.26-5.68-1.75-10.32-4.97-13.78-9.83"/>
            <path class="cls-30" d="M578.52,553.96c-1.9-1.12-3.72-2.39-5.7-3.33-4.13-1.97-7.7-.74-9.58,3.4-.87,1.91-1.22,4.07-1.78,6.12-.12.43-.15.89-.43,1.32-1.29-4.23-2.52-8.44-.83-12.85,1.08-2.84,3.66-4.29,6.61-3.83,5.69.87,9.02,4.75,11.73,9.17"/>
            <path class="cls-30" d="M578.87,554.07s0,.09.01.13c-.04-.01-.11-.01-.12-.04-.03-.05-.03-.11-.05-.17.05.03.11.06.16.08"/>
            <path class="cls-19" d="M413.73,644.75c.33-.11.66-.21,1-.32.03.1.05.19.08.28-.31.07-.61.14-.92.22-.05-.06-.1-.12-.15-.18"/>
            <path class="cls-19" d="M410.66,617.59c.24-.07.49-.14.73-.22-.16.16-.31.32-.47.48-.09-.09-.17-.18-.26-.26"/>
            <path class="cls-19" d="M410.92,617.85c-.15.05-.31.09-.46.14.07-.13.13-.27.2-.4.09.09.18.17.26.26"/>
            <path class="cls-5" d="M514.96,402c6.58.02,13.04,5.16,15.54,12.53,1.86,5.5,1.85,10.9-2.06,15.6-3.64,4.38-8.62,5.29-14.41,2.94-8.44-3.42-13.48-14.47-10.52-23.04,1.76-5.1,5.96-8.05,11.45-8.03M526.61,421.83c.8-7.46-3.88-13.07-8.29-14.93-5.27-2.23-10.61.07-12.31,5.34-2.19,6.77,2.3,15.23,9.14,17.15,3.54.99,6.67.25,9.15-2.56.31-.35.33-.96.49-1.45,2.52-.2,2.28-1.82,1.82-3.55"/>
            <path class="cls-26" d="M574.12,399.83c-.62,2.94-3.33,4.71-6.35,4.14-5.02-.94-8.56-6.82-7.04-11.69,1.09-3.51,4.57-5.23,8.04-3.86,3.6,1.42,5.34,4.35,6.07,8-.67.26-1.34.52-2.01.78.43.88.86,1.76,1.29,2.64M568.22,395.56c.03-1.95-1.58-3.86-3.21-3.86-1.69,0-2.43,1.06-2.52,2.61-.1,1.75,1.6,3.76,3.19,3.74,1.67-.01,2.36-1.11,2.53-2.49"/>
            <path class="cls-2" d="M574.12,399.83c-.43-.88-.86-1.76-1.29-2.64.67-.26,1.34-.52,2.01-.78,1.33,2.1,1.25,2.49-.71,3.41"/>
            <path class="cls-30" d="M524.79,425.38c-.15.49-.17,1.1-.48,1.45-2.49,2.8-5.61,3.55-9.15,2.56-6.84-1.91-11.33-10.37-9.14-17.15,1.7-5.27,7.04-7.56,12.31-5.34,4.4,1.86,9.08,7.48,8.29,14.93-1.08-.67-2.1-2.09-3.49-.68-1.11,1.12-.7,2.39.22,3.43.34.39.96.53,1.45.79M515.99,418.58c-.03-2.75-2.37-5.33-4.84-5.35-2.04-.01-3.53,1.71-3.49,4.02.05,2.74,2.39,5.34,4.83,5.36,2.02.02,3.52-1.72,3.49-4.04"/>
            <path class="cls-2" d="M568.22,395.56c-.18,1.38-.86,2.48-2.53,2.49-1.59.01-3.29-2-3.19-3.74.09-1.54.83-2.61,2.52-2.61,1.63,0,3.24,1.91,3.21,3.86"/>
          </g>
        </g>
      </g>
    </g>
  </g>
</svg>