<svg version="1.1" id="Layer_1" xmlns="http://www.w3.org/2000/svg" xmlns:xlink="http://www.w3.org/1999/xlink" x="0px" y="0px"
	 width="100%" viewBox="0 0 576 576" enable-background="new 0 0 576 576" xml:space="preserve">
<path fill="#FFFFFF" opacity="1.000000" stroke="none" 
	d="
M46.288414,393.224548 
	C52.803017,389.042664 59.569210,386.204163 66.456825,383.702118 
	C70.332390,382.294281 71.183662,380.493774 69.308670,376.640198 
	C63.412148,364.521362 57.001587,352.625214 52.627537,339.810730 
	C45.844242,319.938049 50.253807,307.241547 68.028084,295.935822 
	C72.804405,292.897736 77.709473,290.059906 82.589088,287.187286 
	C84.884560,285.835968 87.319916,284.718109 89.588249,283.325623 
	C98.781517,277.682098 108.284584,277.264374 117.574776,282.525635 
	C132.834747,291.167664 143.730194,303.631012 147.539124,321.081238 
	C149.012192,327.830048 146.252533,333.866364 140.157822,337.829132 
	C136.527161,340.189789 132.878601,342.531403 129.142639,344.718506 
	C126.801643,346.088898 126.460510,347.756470 127.469292,350.126434 
	C132.685669,362.381348 137.872940,374.648987 142.985672,386.947357 
	C143.689972,388.641510 144.729736,389.679840 146.402390,390.278717 
	C182.958527,403.367218 217.585449,421.145691 254.010086,434.552887 
	C264.488007,438.409576 275.194641,441.543762 286.165955,443.593903 
	C299.598999,446.104034 312.245758,442.022034 324.775909,438.098419 
	C354.090271,428.919067 381.566345,415.178436 409.853149,403.445618 
	C420.310455,399.108124 430.853851,394.966766 441.455505,390.996338 
	C444.338440,389.916656 446.239716,388.487823 447.415833,385.589539 
	C452.110687,374.020172 456.903595,362.488495 461.850403,351.024902 
	C463.157410,347.996185 462.756897,346.054657 459.892883,344.385712 
	C456.441162,342.374359 453.192902,340.011566 449.726715,338.027771 
	C443.561707,334.499359 441.580017,328.814453 442.142273,322.336029 
	C443.804291,303.185913 462.493835,282.817932 481.408417,279.207672 
	C486.842163,278.170532 492.056915,279.210785 496.895569,281.735321 
	C506.495544,286.744049 515.948425,292.018433 524.891235,298.157776 
	C538.662109,307.611694 542.894897,318.719574 538.519897,334.866638 
	C534.748291,348.786987 527.771729,361.365234 521.541199,374.247101 
	C520.463867,376.474609 519.037476,378.567505 518.741882,381.572052 
	C524.272705,383.977081 529.950378,386.254425 535.461670,388.880890 
	C548.405151,395.049225 559.064392,404.386230 569.529846,413.945099 
	C572.284424,416.460968 571.425171,419.199249 569.809387,422.076508 
	C564.589233,431.372192 559.378296,440.704071 557.861023,451.498688 
	C556.744446,459.442627 556.630737,467.471680 557.290222,475.418457 
	C558.032593,484.362854 554.248962,490.796936 547.003662,495.000031 
	C533.470398,502.850891 519.044495,505.166412 503.789795,500.374756 
	C497.555389,498.416382 492.662659,494.465607 487.817993,490.379395 
	C476.436737,480.779846 463.905579,472.907166 451.055664,465.458557 
	C447.551392,463.427277 444.799835,463.795624 441.370270,465.465057 
	C411.846893,479.836060 381.672333,492.686920 350.335876,502.567780 
	C329.619232,509.100037 308.416412,513.755249 286.522522,512.118530 
	C266.018768,510.585724 246.221268,505.393524 226.854385,498.507233 
	C199.838943,488.901306 173.449875,477.809357 147.654938,465.314362 
	C144.479034,463.775909 142.000732,463.737305 138.880829,465.418640 
	C124.741379,473.038666 111.312195,481.774017 99.445839,492.543365 
	C83.355049,507.146637 54.776543,505.036133 39.257282,492.586517 
	C34.781483,488.996002 32.396503,484.327972 32.587067,478.231049 
	C32.831188,470.420685 33.048775,462.587189 32.335812,454.765533 
	C31.261225,442.976532 26.099236,432.721313 20.197123,422.835785 
	C17.529320,418.367462 18.238308,415.451874 21.958750,412.121521 
	C29.548725,405.327301 37.397755,398.915283 46.288414,393.224548 
M560.645813,422.382629 
	C562.933167,419.524872 562.064880,417.313232 559.391724,415.239838 
	C556.234985,412.791321 553.266296,410.101807 550.139343,407.613251 
	C527.729431,389.778717 502.780975,382.761658 474.382263,389.296326 
	C446.283447,395.761963 420.190887,407.556641 393.887329,418.837128 
	C371.244843,428.547516 348.875549,438.970520 325.238983,446.145966 
	C309.886810,450.806458 294.641327,454.114380 278.197906,449.921387 
	C253.028046,443.503174 229.381241,433.335846 205.691528,423.138428 
	C179.547348,411.884430 153.691452,399.899780 126.206429,392.101227 
	C108.199455,386.991943 90.012306,384.326294 71.646912,390.087738 
	C57.620735,394.487915 45.462910,402.210846 34.361179,411.806519 
	C27.223236,417.976166 26.903223,417.817261 31.178837,426.074615 
	C37.134506,437.576599 40.490398,449.735962 40.618744,462.747864 
	C41.283665,462.632355 41.484032,462.657074 41.595779,462.569153 
	C43.297150,461.230713 44.927361,459.793762 46.688484,458.540436 
	C68.560509,442.974945 92.320816,437.431854 118.540436,445.107727 
	C130.251404,448.536163 141.275513,453.644318 152.271515,458.844116 
	C184.806366,474.229004 217.679764,488.836731 252.509415,498.319305 
	C272.367828,503.725861 292.597748,506.751373 313.253296,503.428467 
	C337.378448,499.547363 360.327667,491.723053 382.993652,482.813934 
	C407.655945,473.120148 431.452728,461.511475 455.590912,450.659607 
	C482.937073,438.365479 509.700073,438.485657 535.970215,453.710663 
	C540.559265,456.370270 544.450073,459.974945 549.274414,463.521027 
	C549.092896,448.515320 553.251221,435.345703 560.645813,422.382629 
M463.985413,366.377563 
	C461.417755,372.517548 458.850098,378.657501 455.753540,386.062225 
	C473.863403,381.016205 490.415131,377.546112 507.590027,379.619751 
	C509.572845,379.859100 510.589020,378.474670 511.368225,376.915771 
	C517.245728,365.156677 523.447754,353.543854 528.272034,341.294891 
	C530.583435,335.426208 532.796509,329.446075 532.647156,322.977783 
	C532.513916,317.206268 529.008606,313.351593 523.645203,312.829010 
	C516.164795,312.100220 500.664398,321.779236 497.672791,329.298096 
	C499.848816,330.654785 501.981781,332.267151 504.345673,333.395813 
	C508.442780,335.352081 509.690552,338.608368 509.268799,342.804688 
	C507.859955,356.822479 493.044708,367.188293 480.806549,357.509583 
	C477.777649,355.114136 474.584137,352.639526 470.172516,351.763977 
	C468.149353,356.525360 466.206940,361.096710 463.985413,366.377563 
M61.888588,314.335663 
	C55.552334,318.260040 56.460369,324.404785 57.892269,329.985840 
	C62.186626,346.723877 70.811668,361.665314 78.312035,377.062042 
	C79.589073,379.683533 81.895638,379.858002 84.273384,379.554657 
	C98.953468,377.681885 113.077141,380.684662 127.146423,384.289551 
	C128.854156,384.727051 130.673950,385.506348 132.255615,383.935760 
	C131.958618,381.369965 121.752411,355.971405 120.364632,353.920227 
	C119.000214,351.903595 117.475105,352.051666 115.673416,353.177643 
	C112.708244,355.030792 109.673416,356.776031 106.751083,358.693451 
	C100.660789,362.689514 94.622467,362.089569 89.053818,358.002014 
	C83.552650,353.963989 80.912552,348.392395 80.512390,341.322937 
	C80.149216,334.906921 85.303345,334.065979 88.713562,331.322296 
	C88.842567,331.218475 88.987190,331.130493 89.133858,331.052734 
	C92.298508,329.375793 91.961418,327.477264 89.653366,325.228821 
	C85.318291,321.005737 80.514297,317.492981 74.993965,314.977203 
	C70.957008,313.137451 66.890053,311.851929 61.888588,314.335663 
M450.154755,322.541687 
	C449.591614,327.276184 451.675110,330.366791 455.800110,332.636505 
	C460.604034,335.279785 465.079620,338.519989 469.884705,341.160889 
	C472.544586,342.622772 474.730743,345.196991 478.087402,345.374878 
	C485.426086,325.053986 499.208984,311.497070 520.239136,304.385468 
	C510.132996,298.019958 500.811035,291.958466 490.546997,287.585602 
	C488.347015,286.648346 485.844849,286.150146 483.227173,286.602051 
	C468.685364,289.112610 451.804321,306.965271 450.154755,322.541687 
M121.671364,340.121765 
	C125.493599,337.751831 129.309631,335.371826 133.139450,333.014191 
	C140.129959,328.710815 141.836227,324.087128 138.425323,316.606720 
	C133.330276,305.432831 125.598564,296.363708 115.041008,289.978302 
	C108.509956,286.028229 101.689514,285.253143 94.755203,289.399658 
	C88.183525,293.329346 81.487717,297.050934 74.891350,300.940094 
	C73.272659,301.894440 71.402336,302.679047 70.463699,304.613708 
	C90.945503,312.760742 101.277809,320.906799 111.959892,345.400177 
	C115.458931,344.666809 117.977715,342.039032 121.671364,340.121765 
M489.002472,475.257721 
	C491.559753,481.081573 494.330475,486.663574 500.073883,490.221252 
	C512.559265,497.955139 535.286926,495.933746 546.046509,485.967133 
	C550.344238,481.986115 550.760376,478.706451 546.915894,473.767426 
	C533.992981,457.165009 515.844238,451.324799 495.876526,449.360840 
	C493.497040,449.126801 492.116089,450.215698 491.498840,452.468231 
	C489.521851,459.682739 487.331909,466.866913 489.002472,475.257721 
M43.835938,472.390991 
	C38.634682,479.853302 39.167412,483.387421 46.787766,488.315918 
	C56.771496,494.772858 67.813004,496.253357 79.315300,494.066010 
	C88.102509,492.394989 94.581680,487.696564 98.846855,479.420624 
	C103.874535,469.665192 100.362579,460.684174 97.757965,451.480194 
	C97.105270,449.173767 95.043503,449.234161 93.223915,449.407532 
	C74.318085,451.208740 57.189480,456.933563 43.835938,472.390991 
M461.443481,456.746643 
	C460.166351,457.423340 458.523773,457.606903 457.759827,459.937988 
	C465.063660,464.549042 472.486542,469.235291 481.044525,474.638153 
	C479.560364,465.719727 482.699188,458.389099 483.254120,450.443359 
	C475.382599,451.324829 468.779083,454.008667 461.443481,456.746643 
M109.605339,473.237396 
	C117.103775,470.828186 122.590302,464.938171 129.594147,461.657104 
	C130.675812,461.150360 132.165009,460.672272 131.985016,458.536835 
	C123.991043,455.076263 115.848793,451.777924 106.303482,450.444183 
	C107.453079,458.364075 109.480881,465.394135 109.605339,473.237396 
M498.490662,339.042786 
	C496.299561,337.963379 494.436584,336.210022 491.779480,335.715942 
	C488.270081,339.156189 486.617401,343.278137 487.079529,348.172699 
	C487.577576,353.447754 490.815216,354.934082 495.319550,352.018555 
	C497.902985,350.346405 499.551117,347.939484 500.848328,345.190277 
	C502.048462,342.646912 501.635376,340.740692 498.490662,339.042786 
M102.106895,342.638519 
	C100.769005,340.262238 100.487091,336.351654 97.398933,336.216400 
	C94.142021,336.073792 91.223068,338.556580 89.066666,341.092285 
	C87.394264,343.058838 88.799171,345.210449 89.889687,347.067139 
	C92.092178,350.816986 95.200058,354.449097 99.681122,352.970001 
	C103.876030,351.585327 102.815529,346.993286 102.106895,342.638519 
z"/>
<path fill="#FFFFFF" opacity="1.000000" stroke="none" 
	d="
M446.269562,242.103394 
	C444.895020,269.205658 442.169495,295.600586 434.054565,321.212402 
	C426.901093,343.789764 414.691772,362.835297 395.650696,377.086334 
	C371.689209,395.019928 346.064758,410.141937 318.191284,421.240112 
	C301.718689,427.798920 285.349945,426.881012 269.140656,420.110931 
	C242.252213,408.880524 217.372391,394.150909 194.116547,376.681793 
	C174.605255,362.025421 162.666367,342.213745 155.660492,319.103363 
	C150.082993,300.704742 147.181427,281.877441 145.602280,262.760773 
	C141.645050,214.855423 144.026337,166.889664 144.088242,118.949455 
	C144.106293,104.980255 145.128021,91.011436 145.735092,77.044418 
	C145.945984,72.192268 147.632065,70.691872 152.272476,71.123672 
	C181.435883,73.837341 210.643219,75.757889 239.912521,77.027802 
	C273.893005,78.502129 307.885406,78.488976 341.834351,77.453926 
	C373.749420,76.480858 405.659668,74.474113 437.453369,71.190834 
	C441.479248,70.775093 444.189178,71.269890 444.456726,76.331612 
	C447.060028,125.582047 447.826752,174.859467 446.920349,224.165649 
	C446.813293,229.989822 446.494385,235.810089 446.269562,242.103394 
M153.201981,87.553337 
	C152.589157,101.185539 151.509018,114.815796 151.452042,128.450317 
	C151.287842,167.751282 150.056976,207.058334 152.180450,246.354385 
	C153.368027,268.331238 155.652527,290.100403 161.441376,311.403229 
	C167.910248,335.208405 179.498123,355.715851 199.505188,370.841187 
	C220.586884,386.778931 243.437912,399.719727 267.259033,411.057922 
	C285.544830,419.761444 303.622650,420.028259 322.141876,411.417999 
	C343.204376,401.625275 363.089722,389.921204 382.478271,377.188019 
	C409.283752,359.583832 423.877991,334.348755 430.947815,303.701233 
	C437.998657,273.135651 438.773682,242.066437 439.585724,210.986908 
	C440.268982,184.836990 439.157745,158.687469 438.755249,132.538239 
	C438.506683,116.391525 437.777710,100.268608 437.089478,84.139221 
	C436.893860,79.555359 434.654541,79.098465 430.950806,79.438393 
	C416.377777,80.775925 401.810303,82.305222 387.205048,83.133469 
	C353.955750,85.018982 320.686340,86.518387 287.363129,86.172813 
	C255.061096,85.837822 222.807343,84.367516 190.584656,82.170143 
	C180.962692,81.513985 171.326202,80.877487 161.754044,79.744614 
	C153.797546,78.802940 153.427032,78.811691 153.201981,87.553337 
z"/>
<path fill="#FFFFFF" opacity="1.000000" stroke="none" 
	d="
M173.300751,452.712463 
	C170.770615,451.415955 170.775589,450.582367 172.500977,448.500732 
	C176.177231,444.065399 178.822876,438.950378 179.128601,432.897797 
	C181.055817,432.036224 182.667511,433.201965 184.274185,433.919006 
	C190.035950,436.490173 195.778412,439.109009 201.471008,441.829407 
	C206.187210,444.083191 206.589523,448.353119 202.507843,451.653259 
	C198.621567,454.795441 198.477310,456.391174 201.998825,462.040955 
	C205.876907,457.326996 207.829712,452.185455 208.439789,446.042236 
	C213.230911,446.107635 217.397644,448.576874 221.144958,450.888275 
	C225.707123,453.702209 221.937485,459.323212 223.930283,463.892975 
	C226.546539,462.388458 228.350952,460.051270 230.144913,457.831238 
	C231.903122,455.655365 233.723740,455.089417 236.211411,456.415070 
	C239.534683,458.185944 243.648071,458.058929 247.063232,460.797211 
	C243.471588,464.190521 243.165695,468.797119 241.767990,472.977966 
	C241.020966,475.212494 242.003632,476.523315 243.949341,477.287628 
	C246.121460,478.140869 247.643494,477.084442 248.256653,475.122223 
	C249.556442,470.962769 252.194489,466.990295 250.063995,462.035645 
	C254.751678,460.943848 258.902008,462.862671 262.099182,464.687683 
	C265.759827,466.777191 264.123840,472.394409 266.307953,476.409698 
	C268.713531,474.261383 269.965149,471.420715 271.645081,468.922546 
	C274.024017,465.384796 276.813354,466.403320 279.963348,467.941498 
	C276.893585,474.259949 274.827209,480.544586 276.278870,487.640808 
	C273.367859,489.131958 270.965332,487.396606 268.205536,486.788788 
	C268.568085,483.660492 271.821320,481.687225 270.197723,478.350281 
	C267.229187,480.244690 266.992554,484.544861 263.472900,486.149689 
	C260.489990,482.915405 261.742188,478.398376 259.669342,474.906067 
	C258.490692,478.038055 258.145325,481.051117 259.175323,484.197296 
	C256.720947,485.645386 254.969269,484.397308 252.903305,483.426697 
	C255.742966,478.127350 257.165833,472.768616 256.385193,466.116394 
	C252.373032,469.424225 253.203125,473.779541 251.337814,476.994232 
	C248.712234,481.519104 245.689926,483.004852 241.087967,481.253479 
	C236.745026,479.600647 235.123932,476.296234 236.400497,471.719086 
	C237.293777,468.516266 238.201401,465.316864 239.027985,462.096741 
	C239.124329,461.721436 238.744476,461.223846 238.250061,459.853577 
	C233.635483,464.875366 231.835190,470.266602 231.410095,476.705414 
	C228.464798,477.659424 226.133911,476.203979 223.623245,473.985199 
	C225.733826,471.407623 227.567947,468.888336 228.154144,465.448364 
	C224.824097,467.446228 223.404297,471.388550 219.583603,473.039795 
	C216.309647,469.784821 218.624374,465.619141 217.317886,461.654968 
	C215.883926,464.562683 214.791458,467.150879 215.856812,471.104584 
	C208.096069,469.018890 201.617325,466.321075 195.646332,462.636536 
	C193.594284,461.370270 194.670547,458.011108 193.675568,455.701630 
	C191.752884,457.005920 193.610352,459.120422 191.906235,460.650391 
	C189.081970,460.655212 186.630219,459.321136 184.100372,456.917969 
	C188.435318,453.436279 189.685837,448.499207 191.466599,443.732941 
	C188.851257,446.061615 186.312180,447.854950 182.545898,446.834290 
	C179.719849,446.068420 179.517029,448.750549 178.770386,450.469910 
	C178.247925,451.673035 179.874725,453.004547 178.568741,454.349609 
	C176.671906,454.977417 175.233322,453.598145 173.300751,452.712463 
M212.130692,454.749237 
	C210.927017,457.494446 209.659576,460.214233 208.550690,462.997223 
	C208.099304,464.130035 208.229019,465.361450 209.501877,466.030640 
	C210.385345,466.495117 211.205551,466.107574 211.617081,465.314911 
	C213.790344,461.128937 215.938385,456.920868 216.281921,452.186920 
	C213.569763,451.148682 213.165970,452.902313 212.130692,454.749237 
z"/>
<path fill="#FFFFFF" opacity="1.000000" stroke="none" 
	d="
M358.981750,463.952576 
	C358.090729,452.221100 363.184967,447.992249 375.257904,450.748810 
	C375.784912,445.551819 378.961121,442.541138 383.947815,442.281525 
	C386.820190,442.131989 387.152771,444.947083 387.229187,447.336151 
	C385.062775,448.731049 382.671326,444.599243 380.990875,447.899536 
	C380.742004,448.388275 380.714172,449.424683 381.027435,449.696350 
	C383.779205,452.082275 386.257141,449.229004 389.549652,449.833405 
	C387.978333,440.433746 392.529785,436.004333 400.460236,433.697510 
	C405.304077,432.288574 408.934906,427.809631 414.840149,428.195282 
	C415.615997,433.045654 417.890045,436.855743 418.677856,441.061371 
	C416.946075,441.456573 415.550598,439.741058 413.749115,441.494751 
	C414.371643,443.006592 414.399139,445.372620 417.000092,445.175873 
	C419.418701,444.992981 419.378754,442.897064 419.310669,440.938934 
	C421.260101,440.324341 421.999725,442.377075 424.145569,442.230347 
	C421.545929,436.927521 421.625458,430.457764 415.002380,427.998047 
	C417.665497,423.616730 422.314850,422.257172 426.721558,421.369324 
	C430.207092,420.667053 432.663788,423.815216 432.077911,427.004547 
	C431.034485,432.684479 435.063873,433.519409 439.375397,436.174927 
	C437.710114,429.539215 435.727356,424.327515 432.079132,419.628204 
	C434.933533,416.674927 438.691345,415.723663 442.300598,414.702118 
	C444.960510,413.949219 445.269226,414.523956 445.758514,419.240906 
	C444.016357,419.994202 438.429413,417.516663 441.332245,423.023407 
	C443.545502,423.960052 443.568604,421.399200 445.452332,421.579346 
	C447.067841,422.941223 447.799622,424.943359 447.870117,427.131653 
	C446.373230,428.700165 444.742798,426.583771 443.161865,428.117645 
	C442.730011,429.839813 443.512604,431.555298 445.339874,432.162292 
	C448.232269,433.123138 448.094055,429.471497 449.842590,428.540253 
	C453.078430,432.773010 452.837280,433.955414 448.364594,435.761810 
	C446.206177,436.633545 443.925995,437.234314 441.836578,438.239685 
	C437.878296,440.144348 434.052063,441.158417 430.175659,437.244720 
	C429.374756,439.603912 432.135437,439.805908 431.535889,442.317291 
	C425.455841,445.319641 418.782806,448.614838 411.806152,452.059937 
	C410.838867,449.343933 409.914093,447.390411 409.454498,445.332977 
	C408.206909,439.747864 403.384155,439.430939 399.241882,438.569855 
	C396.951447,438.093719 395.054596,440.106934 394.691345,442.384247 
	C394.078003,446.229401 396.335571,449.019714 399.076447,451.341156 
	C401.544525,453.431580 404.007629,452.782013 406.311951,450.908386 
	C407.189758,450.194702 407.913605,449.204437 409.227173,449.274536 
	C410.594452,455.824829 403.723969,458.585144 394.075867,455.490753 
	C392.138000,462.519806 388.786224,465.973816 384.457336,465.202637 
	C381.308899,464.641785 380.867126,462.324615 381.007050,459.760071 
	C382.623596,458.835205 383.362885,460.069733 384.300232,460.600372 
	C385.641052,461.359283 386.863800,461.242798 387.936523,460.172974 
	C388.561371,459.549805 388.778687,458.708405 388.455200,457.868073 
	C387.846039,456.285736 386.468567,456.270020 385.109589,456.431946 
	C383.177002,456.662231 381.255280,456.983521 379.347687,457.263184 
	C379.347687,458.413269 379.291260,459.563690 379.357178,460.707001 
	C379.696899,466.598969 377.450012,470.205658 372.400421,471.807281 
	C367.633728,473.319183 363.838684,471.654816 360.733551,466.681335 
	C360.293091,465.975830 359.883881,465.250793 359.230530,464.263000 
	C359.000854,463.991180 358.981750,463.952576 358.981750,463.952576 
M363.756622,457.116486 
	C363.213318,458.504333 363.857330,459.750458 364.364685,460.932892 
	C365.665314,463.963959 366.810059,467.295319 370.441132,468.271240 
	C372.296326,468.769867 373.709717,467.337616 374.235809,465.741028 
	C375.464569,462.011871 373.572266,458.863068 371.423920,456.171387 
	C369.110504,453.272949 366.306793,452.338013 363.756622,457.116486 
z"/>
<path fill="#FFFFFF" opacity="1.000000" stroke="none" 
	d="
M485.519104,421.552490 
	C487.138702,419.037567 488.071167,421.893097 489.569092,421.687103 
	C490.129700,416.294769 491.195526,410.929993 488.645660,405.156708 
	C493.055481,404.080109 497.199066,403.844177 501.057495,405.087585 
	C504.254852,406.117981 505.135681,409.396576 503.425751,412.098663 
	C501.013733,415.910187 501.723541,418.837311 504.916504,422.194946 
	C505.979187,416.718262 508.585297,411.851105 506.991394,406.115631 
	C510.221558,405.071777 512.910522,405.842621 516.052551,407.397217 
	C512.950745,410.744751 512.423096,414.714355 511.538940,418.520630 
	C511.012665,420.786133 510.523621,423.609344 513.557861,424.376312 
	C516.828674,425.203094 517.805359,422.376526 518.479065,419.955170 
	C519.494202,416.306732 520.257996,412.585510 519.100525,408.790131 
	C521.641846,407.228851 523.402161,408.850281 526.411804,409.275024 
	C522.204041,414.475739 522.365112,420.221008 521.025818,425.591187 
	C523.967346,421.032776 527.150879,416.602722 527.286743,410.872620 
	C532.930847,410.543610 534.061401,411.735657 533.590088,417.068085 
	C533.372925,419.525177 533.553040,422.017426 533.553040,424.657867 
	C539.004089,424.234711 541.408325,412.921082 549.139404,420.376068 
	C544.173950,425.564728 541.197266,431.443054 540.581543,438.700165 
	C537.526489,439.030518 535.386169,437.341888 533.006348,435.373993 
	C534.402649,432.980652 537.361694,431.543457 537.042969,428.119568 
	C533.460632,428.760559 532.351379,433.216888 528.495728,433.731201 
	C526.398193,430.290375 528.503601,426.560150 527.535889,422.780518 
	C525.313477,425.243042 524.999329,428.036499 525.382080,432.329712 
	C519.986450,427.979492 514.014099,430.058411 508.949036,427.672729 
	C508.347412,427.389374 507.741913,426.755219 507.180298,426.800934 
	C501.072632,427.297821 497.878021,423.877869 496.300140,417.825378 
	C494.550812,420.955841 496.103851,422.927307 497.307770,425.588562 
	C492.257507,426.119537 487.743835,426.573883 483.235352,427.074677 
	C479.765564,427.460022 476.237854,427.620392 472.851562,428.389740 
	C468.054474,429.479645 467.273163,424.390839 464.078033,423.041077 
	C463.301788,425.737152 466.147461,426.641235 466.728821,428.776611 
	C464.354431,430.980225 461.566711,431.423798 458.301758,431.171509 
	C458.877289,424.084534 457.650482,417.628998 453.485657,411.497803 
	C457.091949,409.255798 461.207184,408.308075 465.147339,408.282013 
	C469.410187,408.253784 470.036438,412.036499 469.151733,415.289398 
	C467.733856,420.502808 470.871857,422.315216 475.308289,424.775604 
	C474.829681,418.424561 475.015625,412.887634 471.917603,407.761658 
	C475.566162,405.040955 479.756622,405.756561 483.543549,404.994019 
	C485.302277,404.639832 486.413086,406.316772 486.079590,407.922699 
	C485.342194,411.473511 485.507538,415.037598 485.711182,418.348785 
	C483.849609,419.739777 482.775574,417.114349 481.266113,418.102356 
	C480.846069,423.307495 481.198364,423.627533 485.519104,421.552490 
M482.170258,413.414124 
	C482.972107,411.971680 484.139557,410.403564 481.764038,409.397491 
	C480.735809,408.962006 479.704926,409.609253 479.566040,410.738281 
	C479.380829,412.244446 478.662781,414.394012 482.170258,413.414124 
z"/>
<path fill="#FFFFFF" opacity="1.000000" stroke="none" 
	d="
M79.487572,422.437195 
	C80.701546,423.768097 81.433266,425.219788 83.906441,425.148468 
	C85.333015,420.283752 83.004471,415.788727 82.691536,411.463409 
	C80.384590,410.379303 80.215553,412.979187 78.705322,412.633392 
	C75.857758,408.526428 76.279037,407.325775 80.861794,406.750122 
	C88.072685,405.844391 95.282173,404.600555 102.980858,406.330109 
	C101.572784,410.453766 100.344025,414.357880 100.322891,418.488312 
	C100.310036,421.001923 100.700653,423.410706 103.800316,423.539398 
	C106.707970,423.660034 107.246109,421.088196 107.470726,419.018433 
	C107.895584,415.103516 108.480110,411.108368 106.593147,407.198029 
	C108.909935,405.961060 110.884293,406.799957 113.822395,406.947693 
	C110.475212,411.834503 111.701836,416.842651 110.556137,421.472687 
	C109.351463,426.341156 106.356537,428.669006 101.667999,428.119507 
	C97.073792,427.581055 94.560852,424.475891 94.812653,419.387665 
	C94.967949,416.249603 95.372650,413.123901 95.818100,408.359009 
	C93.477333,412.471588 91.463516,411.366913 88.333534,408.778229 
	C89.703995,415.489594 87.827141,421.176910 92.213913,426.286926 
	C86.731293,429.047546 80.642998,427.427277 75.201149,430.369629 
	C74.826263,428.161438 74.588776,426.762543 74.358521,425.406281 
	C69.181442,425.291687 68.927536,425.684052 70.776955,430.545898 
	C62.752258,438.156921 56.526817,430.542908 49.097820,427.796143 
	C50.408962,431.576508 51.913258,434.626312 55.103062,436.747650 
	C54.280891,439.602051 52.063629,439.990509 49.476387,440.684357 
	C48.819164,436.936798 48.048008,433.611084 46.477470,430.524628 
	C44.975208,427.572357 43.509781,424.636322 40.337788,422.847198 
	C42.703644,418.910034 45.425564,418.693298 48.848164,420.735382 
	C51.646030,422.404755 54.596348,423.818573 58.139042,425.695282 
	C57.027279,421.654236 55.786358,418.718628 52.082844,417.389191 
	C53.360592,414.279694 55.363995,413.429138 58.421032,413.528290 
	C58.479465,419.309509 61.336388,423.855957 64.424171,428.999146 
	C66.872284,423.813416 65.143379,418.655243 66.526375,413.959747 
	C66.929207,412.592041 66.341263,410.686554 68.171913,410.116699 
	C70.231041,409.475708 71.087494,411.369110 72.061501,412.596954 
	C74.543190,415.725250 76.881416,418.967316 79.487572,422.437195 
z"/>
<path fill="#FFFFFF" opacity="1.000000" stroke="none" 
	d="
M134.150177,422.146484 
	C136.760559,419.745636 137.998795,414.646362 141.372437,415.760925 
	C145.349182,417.074738 142.680893,421.907593 143.204803,425.150940 
	C143.743896,428.488312 142.404297,432.045593 144.499222,436.166901 
	C148.576172,431.179871 150.710678,426.147430 151.339294,420.286987 
	C156.466263,419.669128 157.659714,420.753235 157.479492,425.779755 
	C157.386444,428.375214 156.801895,431.042328 158.005981,433.817932 
	C163.240982,433.025269 165.523407,422.137085 173.249329,429.390717 
	C168.596405,434.651184 165.558655,440.512573 164.928543,447.730194 
	C161.693329,448.228241 159.459656,446.444214 157.017990,444.386810 
	C158.395187,442.307556 161.374893,441.337006 160.768631,437.929596 
	C157.658112,438.691803 156.673325,442.663177 153.234894,443.067352 
	C150.361710,440.115631 152.672470,436.337891 151.468384,432.864746 
	C149.226303,434.889374 149.056091,437.352814 149.809250,440.726929 
	C144.514038,439.993256 140.342316,437.900757 136.014206,435.858551 
	C136.119080,433.600616 139.500763,431.027466 135.242844,429.678619 
	C131.550537,428.509003 132.707794,432.242798 131.374130,433.525024 
	C124.007568,433.520294 119.507874,430.301483 119.505180,421.772827 
	C117.170357,424.684265 118.643028,426.947876 118.686653,429.282257 
	C115.384254,430.759979 112.987946,428.794800 110.036598,427.790222 
	C113.947540,421.564056 115.474693,415.133575 115.181290,407.733490 
	C119.416496,407.639587 123.459259,408.728760 126.959412,410.664825 
	C130.250717,412.485352 129.943512,416.324249 127.592003,418.415466 
	C123.405991,422.138031 125.286118,425.271729 127.277756,429.081573 
	C130.625992,427.748596 131.657303,424.443848 134.150177,422.146484 
z"/>
<path fill="#FFFFFF" opacity="1.000000" stroke="none" 
	d="
M339.212128,463.356537 
	C338.810638,464.924866 339.658783,466.704651 338.442535,468.128754 
	C338.096893,468.211700 337.694855,468.450653 337.490936,468.336304 
	C332.401886,465.482147 329.790924,465.813812 328.007507,469.585388 
	C326.358948,473.071808 329.025940,479.553772 332.632874,481.029388 
	C334.049652,481.608978 335.315552,481.569763 336.200470,480.349060 
	C337.944214,477.943573 334.716888,477.587769 334.127472,475.751862 
	C335.948669,473.508911 338.593781,473.564545 341.490021,473.215546 
	C342.012451,477.065735 344.510010,480.921234 339.291107,483.525879 
	C332.573517,486.878418 327.631958,485.487091 322.743164,478.458649 
	C321.941437,481.953064 321.316559,485.398804 318.059296,487.413239 
	C311.858093,491.248383 304.853516,488.466614 302.808594,481.246613 
	C302.317139,479.511383 302.238495,477.659210 301.991547,475.425903 
	C302.013062,474.990967 302.077454,474.934509 302.077454,474.934509 
	C304.808960,465.075317 315.205963,463.419739 321.763794,470.909119 
	C324.680450,463.159241 330.798492,461.795898 338.453247,462.824890 
	C338.941742,463.019714 339.212128,463.356537 339.212128,463.356537 
M316.416077,482.610321 
	C317.078979,479.650452 317.102203,476.677490 316.091705,473.817993 
	C315.337555,471.683929 313.980988,469.915039 311.345795,470.386993 
	C309.072388,470.794189 308.088287,472.688995 307.770325,474.680634 
	C307.195038,478.283905 308.173767,481.670380 310.840363,484.139374 
	C312.497070,485.673309 314.546021,485.149506 316.416077,482.610321 
z"/>
<path fill="#FFFFFF" opacity="1.000000" stroke="none" 
	d="
M338.803650,462.853699 
	C340.967102,459.219940 343.760284,459.005798 347.136292,461.196106 
	C350.022583,463.068695 352.423157,465.707489 355.860199,466.937439 
	C354.863586,462.159912 354.667114,461.736664 351.630951,457.734985 
	C353.896362,455.711731 353.896362,455.711731 357.351959,455.248077 
	C357.984680,457.887634 357.412842,460.791229 358.827698,463.638489 
	C358.981750,463.952576 359.000854,463.991180 359.014648,464.008270 
	C359.887054,466.537964 360.785187,469.037994 361.589142,471.567993 
	C362.055695,473.036102 363.646515,474.718658 361.655060,476.008759 
	C360.025787,477.064209 358.504669,475.862610 357.102234,474.922333 
	C353.955261,472.812439 350.789642,470.730347 347.015930,468.228851 
	C347.455658,472.776917 349.246490,475.787170 351.882202,478.342865 
	C350.276459,480.485291 348.305542,481.002625 345.753754,480.902740 
	C345.436768,474.555298 344.185303,468.524506 339.484863,463.507202 
	C339.212128,463.356537 338.941742,463.019714 338.803650,462.853699 
z"/>
<path fill="#FFFFFF" opacity="1.000000" stroke="none" 
	d="
M301.981384,475.019714 
	C301.474152,474.914490 300.765015,474.934174 300.559937,474.622345 
	C298.878326,472.065674 296.792847,469.904663 293.654022,471.774078 
	C290.418030,473.701385 289.868713,477.016205 290.841766,480.543091 
	C291.789368,483.977661 293.818176,485.976654 297.647400,485.817474 
	C299.038422,485.759644 300.524414,484.748749 301.888641,485.957947 
	C299.677429,491.007507 292.153687,491.466248 288.003418,486.843658 
	C284.982513,483.479034 284.042603,476.985382 286.233429,472.774689 
	C288.523193,468.373779 292.465210,467.288635 297.177246,467.566132 
	C301.674164,467.830902 303.563293,469.683258 302.143127,474.565765 
	C302.077454,474.934509 302.013062,474.990967 301.981384,475.019714 
z"/>
<path fill="#FFFFFF" opacity="1.000000" stroke="none" 
	d="
M364.412720,264.754333 
	C344.603363,258.785645 325.181732,252.944214 305.592987,247.633865 
	C296.996948,245.303558 289.175690,246.866531 281.116730,249.040909 
	C246.253677,258.447266 211.912643,269.572540 177.496857,280.453735 
	C174.972229,281.251953 172.379852,281.939758 169.766800,282.325195 
	C167.137299,282.713043 164.340546,282.960144 162.811829,279.895020 
	C161.191910,276.647095 161.934128,273.738129 164.150742,271.108154 
	C167.233017,267.451050 171.370987,265.159698 175.550308,263.159912 
	C198.369370,252.241226 221.290085,241.535233 244.131699,230.663330 
	C257.653625,224.227310 271.068115,217.593140 285.070435,212.188629 
	C292.676605,209.252823 299.854950,209.296890 307.351837,212.275238 
	C328.727325,220.767212 349.138550,231.322708 369.880005,241.174652 
	C384.612274,248.172302 399.418976,255.013397 414.144073,262.025940 
	C418.345978,264.027008 422.544647,266.143280 426.090942,269.226501 
	C429.290710,272.008362 431.627899,275.429016 429.357086,279.726593 
	C427.145111,283.912811 423.061188,282.936859 419.593872,281.896973 
	C407.166901,278.170013 394.819855,274.177063 382.434937,270.309204 
	C376.562622,268.475281 370.673004,266.696838 364.412720,264.754333 
z"/>
<path fill="#FFFFFF" opacity="1.000000" stroke="none" 
	d="
M386.979431,297.787476 
	C398.801483,292.996277 410.354797,292.983124 422.019745,296.850586 
	C424.335083,297.618256 426.015228,298.740662 425.303192,301.472290 
	C423.971832,306.579803 422.523865,311.656921 421.080078,316.907898 
	C419.645416,316.658813 418.779449,316.698090 418.099030,316.361877 
	C407.998138,311.371033 398.374908,313.104797 389.037384,318.422882 
	C383.539307,321.554291 378.216827,325.004517 372.645172,327.994232 
	C356.550537,336.630554 340.689575,335.479675 325.091431,326.506500 
	C319.607697,323.351929 314.415161,319.732086 308.722748,316.895966 
	C298.589508,311.847412 288.811737,312.430969 279.181305,318.027557 
	C274.284760,320.873169 269.457275,323.837555 264.595642,326.743286 
	C247.804947,336.778839 231.086975,336.040314 214.437729,326.387360 
	C212.708313,325.384705 210.969788,324.388000 209.308655,323.278961 
	C197.244171,315.223785 184.890533,308.933716 169.947861,317.535980 
	C167.336853,311.637115 166.052887,306.186676 164.927124,300.724091 
	C164.304077,297.700897 167.035355,297.350220 169.005585,296.680756 
	C184.244629,291.502838 198.547989,294.116333 212.145767,302.057831 
	C216.316086,304.493408 220.369781,307.129272 224.467773,309.687988 
	C234.836716,316.162262 245.148361,316.003174 255.494293,309.572510 
	C260.727905,306.319489 265.920502,302.951843 271.387207,300.131378 
	C289.445953,290.814392 307.035767,292.507446 324.106506,302.934357 
	C328.228088,305.451843 332.338257,307.989288 336.495178,310.447327 
	C346.390442,316.298462 356.140350,315.600006 365.778931,309.744812 
	C372.606537,305.597198 379.139404,300.926086 386.979431,297.787476 
z"/>
<path fill="#FFFFFF" opacity="1.000000" stroke="none" 
	d="
M277.189270,337.967590 
	C291.814087,332.576324 305.683868,333.601105 319.057465,340.684235 
	C323.908295,343.253387 328.650726,346.072021 333.233093,349.094421 
	C344.830872,356.744019 356.235199,356.596008 367.782074,348.979065 
	C375.847198,343.658875 383.985840,338.427155 393.565247,336.072418 
	C399.573914,334.595459 405.571625,334.107117 412.978577,335.478729 
	C407.666046,343.341644 404.859009,351.977173 395.951843,355.611298 
	C390.660248,357.770294 385.873627,360.719025 381.079895,363.739960 
	C371.551361,369.744659 361.731232,374.726532 349.924957,374.390747 
	C341.883362,374.162048 334.461975,372.204681 327.541809,368.280823 
	C321.893738,365.078308 316.422516,361.563995 310.778198,358.354523 
	C301.266815,352.946289 291.448944,352.450287 281.648071,357.406952 
	C276.607605,359.956085 271.783142,362.958008 266.980652,365.947418 
	C249.320480,376.940247 231.666702,377.252655 213.742950,366.480316 
	C206.775238,362.292694 199.652206,358.371765 192.377533,354.665070 
	C185.280014,351.048615 181.851227,343.176666 177.492706,335.629883 
	C185.024796,333.816162 191.483490,334.701080 197.909210,336.352478 
	C205.113434,338.203888 211.371841,342.041138 217.634109,345.864502 
	C220.619049,347.686890 223.594925,349.530670 226.648117,351.233490 
	C235.321198,356.070587 244.071945,356.189087 252.846039,351.466400 
	C260.902832,347.129761 268.205170,341.437592 277.189270,337.967590 
z"/>
<path fill="#FFFFFF" opacity="1.000000" stroke="none" 
	d="
M380.188843,283.311401 
	C369.825958,289.773407 359.305176,294.372864 347.019012,293.333405 
	C335.821350,292.386017 326.475067,287.056244 317.270294,281.273468 
	C311.204468,277.462708 305.176147,273.728394 297.665710,273.178101 
	C288.832855,272.530914 281.383820,275.893433 274.248077,280.398285 
	C268.470154,284.045929 262.748657,287.793396 256.339111,290.261810 
	C238.147324,297.267883 222.270172,292.014618 207.402191,281.432098 
	C207.707504,279.420624 209.053787,279.260468 210.057129,278.958252 
	C235.703461,271.233307 261.148254,262.817871 287.222626,256.556244 
	C292.717316,255.236725 298.068268,255.322449 303.496552,256.698608 
	C329.315155,263.243958 354.651459,271.435089 380.133606,279.127869 
	C381.039703,279.401398 381.865234,279.941681 382.626038,280.308319 
	C382.626648,282.034210 381.350525,282.405304 380.188843,283.311401 
z"/>
<path fill="#FFFFFF" opacity="1.000000" stroke="none" 
	d="
M267.518188,403.563110 
	C261.902679,401.070374 256.425171,399.127106 251.555527,395.299408 
	C253.688217,392.969147 256.571289,393.144592 258.873627,392.107513 
	C264.977692,389.357971 270.590881,385.797180 275.992401,381.939819 
	C287.760529,373.535828 299.851654,372.743317 312.457520,379.794617 
	C321.233521,384.703613 328.855560,391.612793 340.399689,394.613892 
	C332.229706,399.581421 325.283569,403.150116 317.644073,405.198059 
	C315.583771,405.750336 313.900665,404.026398 312.294159,402.902863 
	C293.838165,389.995117 294.788849,392.960175 280.045258,402.826111 
	C275.737701,405.708557 272.162048,406.502808 267.518188,403.563110 
z"/>
<path fill="#FFFFFF" opacity="1.000000" stroke="none" 
	d="
M334.886536,212.459015 
	C336.101593,206.781052 334.349579,203.873810 328.556213,204.095673 
	C327.745483,204.126740 326.913300,203.814514 326.128113,202.239914 
	C332.863892,199.048538 333.753418,194.060303 328.576569,187.425415 
	C335.948364,190.376480 341.111053,189.887329 342.677887,180.692841 
	C345.515076,187.786972 349.114838,192.249710 357.522614,187.228958 
	C352.655151,194.043045 352.723328,199.143402 360.488831,202.073105 
	C357.842346,205.192947 353.851074,203.291443 351.913116,205.836395 
	C350.040009,208.296097 352.230835,211.688660 350.621094,214.470947 
	C349.974487,214.349960 349.322418,214.430130 349.075531,214.151413 
	C345.393341,209.994308 341.777771,208.145004 337.667114,213.766190 
	C336.682159,215.113052 335.286865,214.787643 334.886536,212.459015 
z"/>
<path fill="#FFFFFF" opacity="1.000000" stroke="none" 
	d="
M383.192749,137.680908 
	C390.146973,142.914490 391.163727,135.222565 395.232910,132.268188 
	C396.067200,139.774887 399.511963,143.716141 408.165833,140.997360 
	C401.848450,146.890091 401.862915,151.871231 409.061340,156.895020 
	C400.959564,155.984924 396.502289,158.299332 397.711304,167.448883 
	C393.032379,161.366669 388.364807,159.121780 382.041626,165.257401 
	C384.215607,157.545456 381.963684,153.014038 374.817352,152.049744 
	C374.992859,149.891251 376.312500,149.612900 377.323944,149.239624 
	C381.739441,147.610168 382.668213,144.807587 380.682526,140.636154 
	C379.777435,138.734665 378.850769,136.287415 383.192749,137.680908 
z"/>
<path fill="#FFFFFF" opacity="1.000000" stroke="none" 
	d="
M344.908997,110.055283 
	C344.577820,108.462158 343.178192,107.519402 344.057129,105.262650 
	C350.307251,109.085091 355.344604,107.964561 358.063110,98.719551 
	C359.818817,103.464333 360.876373,106.322472 361.976929,109.296753 
	C365.125580,108.923836 368.037262,108.578987 371.225586,108.201370 
	C371.322479,112.039177 367.732391,113.622032 367.038239,116.731354 
	C368.109009,119.770554 371.995636,120.436417 373.378906,123.893440 
	C370.374969,125.055840 366.755066,123.577576 364.348511,125.872154 
	C361.972107,128.138000 364.420166,131.759659 362.503265,134.260483 
	C362.394989,134.250443 347.391083,132.858353 346.654938,132.790054 
	C349.343567,125.749428 346.761414,121.484055 338.893402,120.851662 
	C340.778015,116.616783 349.183838,117.072510 344.908997,110.055283 
z"/>
<path fill="#FFFFFF" opacity="1.000000" stroke="none" 
	d="
M304.846558,157.347595 
	C306.852814,150.897217 306.595032,145.820114 297.644012,144.051437 
	C305.615082,141.845856 309.350922,138.056305 304.846222,129.532471 
	C311.590820,134.495911 316.618530,134.448380 320.610748,126.824013 
	C321.355438,134.364655 323.786713,139.146072 332.826355,136.838043 
	C327.173004,142.142944 324.747986,147.148941 332.282043,152.150467 
	C331.095764,152.492142 319.374573,161.173904 319.266693,161.355576 
	C315.764984,155.401199 311.010590,154.215454 304.846558,157.347595 
z"/>
<path fill="#FFFFFF" opacity="1.000000" stroke="none" 
	d="
M363.917999,175.182770 
	C359.039581,170.859375 356.228424,176.459320 351.391510,177.438126 
	C354.637939,170.510208 352.852631,165.423767 346.225342,161.505630 
	C353.700073,161.986420 358.258301,159.269760 359.974731,151.679062 
	C362.122314,158.693024 365.924103,162.448700 373.764252,161.294113 
	C368.144562,165.591446 365.087463,170.131592 368.781433,176.351242 
	C366.423523,177.558014 365.475677,175.986298 363.917999,175.182770 
z"/>
</svg>