<svg version="1.1" id="Layer_1" xmlns="http://www.w3.org/2000/svg" xmlns:xlink="http://www.w3.org/1999/xlink" x="0px" y="0px"
	 width="100%" viewBox="0 0 1600 900" enable-background="new 0 0 1600 900" xml:space="preserve">
<path fill="#F1F3F4" opacity="0" stroke="none" 
	d="
M934.000000,901.000000 
	C622.666687,901.000000 311.833344,901.000000 1.000000,901.000000 
	C1.000000,601.000000 1.000000,301.000000 1.000000,1.000000 
	C534.333313,1.000000 1067.666626,1.000000 1601.000000,1.000000 
	C1601.000000,301.000000 1601.000000,601.000000 1601.000000,901.000000 
	C1378.833374,901.000000 1156.666626,901.000000 934.000000,901.000000 
M899.000366,689.300415 
	C895.364319,700.061340 891.728271,710.822266 888.086853,721.599121 
	C909.452576,721.599121 931.531860,721.599121 953.804077,721.599121 
	C960.859863,701.350220 963.045288,680.502625 961.509338,658.475464 
	C963.697632,659.304810 965.209961,659.860474 966.709351,660.448853 
	C983.615906,667.083191 1001.208679,670.184021 1019.304443,670.906494 
	C1022.822632,671.046997 1024.568481,670.101685 1025.679321,666.513245 
	C1030.594971,650.632263 1035.860229,634.859619 1040.975342,619.040100 
	C1042.216553,615.201538 1043.367310,611.333618 1044.798706,606.706055 
	C1029.172607,609.878906 1014.473938,610.327209 999.860229,606.631409 
	C985.060059,602.888428 971.963257,595.915710 960.661926,585.622192 
	C949.491882,575.448120 941.276123,563.240356 936.221802,549.037292 
	C922.698669,511.036285 935.150940,469.515106 967.280579,445.461365 
	C982.635315,433.966064 1000.026489,427.658203 1019.199341,427.237366 
	C1048.593384,426.592224 1072.786865,438.251984 1092.562134,460.348419 
	C1099.354980,439.413208 1105.979858,419.190704 1112.352539,398.889069 
	C1112.752808,397.613647 1111.644409,394.991516 1110.451050,394.231812 
	C1103.163086,389.592316 1095.950562,384.647858 1088.133179,381.072540 
	C1077.801758,376.347290 1066.936890,372.787964 1056.122803,368.659302 
	C1056.708252,367.873596 1057.432861,366.805725 1058.251953,365.816193 
	C1069.837158,351.822052 1078.422485,336.155975 1084.744873,319.149017 
	C1086.240234,315.126312 1086.013184,312.668762 1082.134399,310.126526 
	C1074.900513,305.385101 1068.064087,300.037720 1061.054077,294.953979 
	C1051.541626,288.055542 1042.021606,281.167816 1032.277832,274.111145 
	C1026.360229,332.593658 978.686279,359.994141 940.984985,359.763916 
	C899.774597,359.512299 866.497009,333.435181 854.596985,297.972382 
	C846.916687,275.084778 847.923035,252.407318 858.099792,230.380920 
	C868.221252,208.474274 885.012817,193.334839 907.565125,183.457581 
	C888.877380,169.887268 870.889709,156.825302 852.721130,143.631973 
	C847.827271,147.646530 842.852600,150.896576 838.917847,155.116348 
	C828.540405,166.245728 818.614380,177.796051 808.951843,188.679474 
	C803.155701,181.385483 797.018372,172.629196 789.804138,164.874802 
	C782.617126,157.149689 774.349609,150.429871 766.599426,143.309296 
	C747.719360,157.034943 729.837891,170.034668 711.311829,183.502960 
	C733.737000,193.155365 750.327698,208.156876 760.500427,229.654892 
	C770.702026,251.213974 772.080383,273.592957 764.891602,296.275757 
	C753.463623,332.334869 720.269470,359.291504 678.225708,359.762360 
	C641.778137,360.170593 592.754150,333.929657 586.612793,274.495483 
	C586.143494,274.707947 585.650208,274.839447 585.264343,275.119080 
	C568.543762,287.236694 551.865723,299.413605 535.084106,311.446045 
	C532.607788,313.221558 532.791016,314.925293 533.642944,317.398102 
	C539.668640,334.888580 548.420715,350.842926 560.144470,365.161865 
	C561.158875,366.400909 562.113220,367.689209 563.446533,369.406860 
	C561.996033,369.775818 561.083801,370.007996 560.171509,370.239868 
	C542.090515,374.836395 525.397888,382.437408 509.938324,392.912109 
	C506.427795,395.290710 505.634796,397.429749 507.035278,401.428619 
	C511.486694,414.138977 515.562317,426.981201 519.755432,439.781555 
	C521.930542,446.421509 524.047058,453.080688 526.310913,460.106384 
	C560.479004,421.786987 609.659668,419.584015 643.834717,440.190643 
	C678.183533,460.902069 695.154541,501.497772 685.386230,540.017273 
	C680.394836,559.700073 670.202271,576.176636 654.394104,588.899841 
	C630.805664,607.884827 603.832031,612.915405 573.930176,606.689392 
	C580.589844,627.202820 587.070679,646.908325 593.325500,666.685303 
	C594.362915,669.965637 595.848633,671.059937 599.296936,670.919434 
	C617.396118,670.181946 635.016357,667.200989 651.933044,660.541504 
	C653.535095,659.910950 655.182007,659.394714 657.092773,658.725647 
	C657.092773,661.566589 657.168274,663.710449 657.080933,665.847534 
	C656.360229,683.475403 658.596252,700.700928 663.682190,717.606384 
	C664.667725,720.882263 666.042175,721.971741 669.529602,721.937195 
	C689.025818,721.743835 708.524841,721.848145 728.022949,721.834656 
	C729.258301,721.833801 730.493591,721.696777 732.287476,721.589844 
	C731.087219,719.275574 730.202209,717.533325 729.285828,715.807861 
	C719.851501,698.043518 716.165039,679.086914 719.386597,659.295715 
	C727.805115,607.579163 773.788818,574.717590 825.500122,582.968689 
	C873.948181,590.699036 908.576477,640.336548 899.000366,689.300415 
z"/>
<path fill="#FFFFFF" opacity="1.000000" stroke="none" 
	d="
M899.038452,688.868042 
	C908.576477,640.336548 873.948181,590.699036 825.500122,582.968689 
	C773.788818,574.717590 727.805115,607.579163 719.386597,659.295715 
	C716.165039,679.086914 719.851501,698.043518 729.285828,715.807861 
	C730.202209,717.533325 731.087219,719.275574 732.287476,721.589844 
	C730.493591,721.696777 729.258301,721.833801 728.022949,721.834656 
	C708.524841,721.848145 689.025818,721.743835 669.529602,721.937195 
	C666.042175,721.971741 664.667725,720.882263 663.682190,717.606384 
	C658.596252,700.700928 656.360229,683.475403 657.080933,665.847534 
	C657.168274,663.710449 657.092773,661.566589 657.092773,658.725647 
	C655.182007,659.394714 653.535095,659.910950 651.933044,660.541504 
	C635.016357,667.200989 617.396118,670.181946 599.296936,670.919434 
	C595.848633,671.059937 594.362915,669.965637 593.325500,666.685303 
	C587.070679,646.908325 580.589844,627.202820 573.930176,606.689392 
	C603.832031,612.915405 630.805664,607.884827 654.394104,588.899841 
	C670.202271,576.176636 680.394836,559.700073 685.386230,540.017273 
	C695.154541,501.497772 678.183533,460.902069 643.834717,440.190643 
	C609.659668,419.584015 560.479004,421.786987 526.310913,460.106384 
	C524.047058,453.080688 521.930542,446.421509 519.755432,439.781555 
	C515.562317,426.981201 511.486694,414.138977 507.035278,401.428619 
	C505.634796,397.429749 506.427795,395.290710 509.938324,392.912109 
	C525.397888,382.437408 542.090515,374.836395 560.171509,370.239868 
	C561.083801,370.007996 561.996033,369.775818 563.446533,369.406860 
	C562.113220,367.689209 561.158875,366.400909 560.144470,365.161865 
	C548.420715,350.842926 539.668640,334.888580 533.642944,317.398102 
	C532.791016,314.925293 532.607788,313.221558 535.084106,311.446045 
	C551.865723,299.413605 568.543762,287.236694 585.264343,275.119080 
	C585.650208,274.839447 586.143494,274.707947 586.612793,274.495483 
	C592.754150,333.929657 641.778137,360.170593 678.225708,359.762360 
	C720.269470,359.291504 753.463623,332.334869 764.891602,296.275757 
	C772.080383,273.592957 770.702026,251.213974 760.500427,229.654892 
	C750.327698,208.156876 733.737000,193.155365 711.311829,183.502960 
	C729.837891,170.034668 747.719360,157.034943 766.599426,143.309296 
	C774.349609,150.429871 782.617126,157.149689 789.804138,164.874802 
	C797.018372,172.629196 803.155701,181.385483 808.951843,188.679474 
	C818.614380,177.796051 828.540405,166.245728 838.917847,155.116348 
	C842.852600,150.896576 847.827271,147.646530 852.721130,143.631973 
	C870.889709,156.825302 888.877380,169.887268 907.565125,183.457581 
	C885.012817,193.334839 868.221252,208.474274 858.099792,230.380920 
	C847.923035,252.407318 846.916687,275.084778 854.596985,297.972382 
	C866.497009,333.435181 899.774597,359.512299 940.984985,359.763916 
	C978.686279,359.994141 1026.360229,332.593658 1032.277832,274.111145 
	C1042.021606,281.167816 1051.541626,288.055542 1061.054077,294.953979 
	C1068.064087,300.037720 1074.900513,305.385101 1082.134399,310.126526 
	C1086.013184,312.668762 1086.240234,315.126312 1084.744873,319.149017 
	C1078.422485,336.155975 1069.837158,351.822052 1058.251953,365.816193 
	C1057.432861,366.805725 1056.708252,367.873596 1056.122803,368.659302 
	C1066.936890,372.787964 1077.801758,376.347290 1088.133179,381.072540 
	C1095.950562,384.647858 1103.163086,389.592316 1110.451050,394.231812 
	C1111.644409,394.991516 1112.752808,397.613647 1112.352539,398.889069 
	C1105.979858,419.190704 1099.354980,439.413208 1092.562134,460.348419 
	C1072.786865,438.251984 1048.593384,426.592224 1019.199341,427.237366 
	C1000.026489,427.658203 982.635315,433.966064 967.280579,445.461365 
	C935.150940,469.515106 922.698669,511.036285 936.221802,549.037292 
	C941.276123,563.240356 949.491882,575.448120 960.661926,585.622192 
	C971.963257,595.915710 985.060059,602.888428 999.860229,606.631409 
	C1014.473938,610.327209 1029.172607,609.878906 1044.798706,606.706055 
	C1043.367310,611.333618 1042.216553,615.201538 1040.975342,619.040100 
	C1035.860229,634.859619 1030.594971,650.632263 1025.679321,666.513245 
	C1024.568481,670.101685 1022.822632,671.046997 1019.304443,670.906494 
	C1001.208679,670.184021 983.615906,667.083191 966.709351,660.448853 
	C965.209961,659.860474 963.697632,659.304810 961.509338,658.475464 
	C963.045288,680.502625 960.859863,701.350220 953.804077,721.599121 
	C931.531860,721.599121 909.452576,721.599121 888.086853,721.599121 
	C891.728271,710.822266 895.364319,700.061340 899.038452,688.868042 
M722.753113,414.297424 
	C719.193970,415.334320 715.634827,416.371216 711.665283,417.527679 
	C739.885193,450.878632 752.174866,488.924713 748.946289,532.515564 
	C789.524231,515.934387 829.527649,515.948364 870.125305,532.571106 
	C868.197449,511.133392 870.472900,490.819458 876.882751,470.983276 
	C883.288208,451.160553 893.600281,433.526489 907.330627,417.480927 
	C864.740417,406.986420 832.407654,383.445557 809.438049,346.431732 
	C788.795166,379.742523 760.455200,402.417908 722.753113,414.297424 
z"/>
<path fill="#F0F3F4" opacity="0" stroke="none" 
	d="
M723.134766,414.187500 
	C760.455200,402.417908 788.795166,379.742523 809.438049,346.431732 
	C832.407654,383.445557 864.740417,406.986420 907.330627,417.480927 
	C893.600281,433.526489 883.288208,451.160553 876.882751,470.983276 
	C870.472900,490.819458 868.197449,511.133392 870.125305,532.571106 
	C829.527649,515.948364 789.524231,515.934387 748.946289,532.515564 
	C752.174866,488.924713 739.885193,450.878632 711.665283,417.527679 
	C715.634827,416.371216 719.193970,415.334320 723.134766,414.187500 
z"/>
</svg>